%TF.GenerationSoftware,KiCad,Pcbnew,10.0.5*%
%TF.CreationDate,2026-09-21T21:29:31+05:00*%
%TF.ProjectId,My Mechanical Keyboard,4d79204d-6563-4686-916e-6963616c204b,rev?*%
%TF.SameCoordinates,Original*%
%TF.FileFunction,Legend,Top*%
%TF.FilePolarity,Positive*%
%FSLAX46Y46*%
G04 Gerber Fmt 4.6, Leading zero omitted, Abs format (unit mm)*
G04 Created by KiCad (PCBNEW 10.0.5) date 2026-09-21 21:29:31*
%MOMM*%
%LPD*%
G01*
G04 APERTURE LIST*
%ADD10C,0.150000*%
%ADD11C,0.120000*%
G04 APERTURE END LIST*
D10*
X336928095Y-27424819D02*
X336928095Y-26424819D01*
X336928095Y-26901009D02*
X337499523Y-26901009D01*
X337499523Y-27424819D02*
X337499523Y-26424819D01*
X337880476Y-26424819D02*
X338499523Y-26424819D01*
X338499523Y-26424819D02*
X338166190Y-26805771D01*
X338166190Y-26805771D02*
X338309047Y-26805771D01*
X338309047Y-26805771D02*
X338404285Y-26853390D01*
X338404285Y-26853390D02*
X338451904Y-26901009D01*
X338451904Y-26901009D02*
X338499523Y-26996247D01*
X338499523Y-26996247D02*
X338499523Y-27234342D01*
X338499523Y-27234342D02*
X338451904Y-27329580D01*
X338451904Y-27329580D02*
X338404285Y-27377200D01*
X338404285Y-27377200D02*
X338309047Y-27424819D01*
X338309047Y-27424819D02*
X338023333Y-27424819D01*
X338023333Y-27424819D02*
X337928095Y-27377200D01*
X337928095Y-27377200D02*
X337880476Y-27329580D01*
X255365476Y-56603200D02*
X255508333Y-56650819D01*
X255508333Y-56650819D02*
X255746428Y-56650819D01*
X255746428Y-56650819D02*
X255841666Y-56603200D01*
X255841666Y-56603200D02*
X255889285Y-56555580D01*
X255889285Y-56555580D02*
X255936904Y-56460342D01*
X255936904Y-56460342D02*
X255936904Y-56365104D01*
X255936904Y-56365104D02*
X255889285Y-56269866D01*
X255889285Y-56269866D02*
X255841666Y-56222247D01*
X255841666Y-56222247D02*
X255746428Y-56174628D01*
X255746428Y-56174628D02*
X255555952Y-56127009D01*
X255555952Y-56127009D02*
X255460714Y-56079390D01*
X255460714Y-56079390D02*
X255413095Y-56031771D01*
X255413095Y-56031771D02*
X255365476Y-55936533D01*
X255365476Y-55936533D02*
X255365476Y-55841295D01*
X255365476Y-55841295D02*
X255413095Y-55746057D01*
X255413095Y-55746057D02*
X255460714Y-55698438D01*
X255460714Y-55698438D02*
X255555952Y-55650819D01*
X255555952Y-55650819D02*
X255794047Y-55650819D01*
X255794047Y-55650819D02*
X255936904Y-55698438D01*
X256270238Y-55650819D02*
X256508333Y-56650819D01*
X256508333Y-56650819D02*
X256698809Y-55936533D01*
X256698809Y-55936533D02*
X256889285Y-56650819D01*
X256889285Y-56650819D02*
X257127381Y-55650819D01*
X257413095Y-55650819D02*
X258079761Y-55650819D01*
X258079761Y-55650819D02*
X257651190Y-56650819D01*
X258889285Y-55650819D02*
X258698809Y-55650819D01*
X258698809Y-55650819D02*
X258603571Y-55698438D01*
X258603571Y-55698438D02*
X258555952Y-55746057D01*
X258555952Y-55746057D02*
X258460714Y-55888914D01*
X258460714Y-55888914D02*
X258413095Y-56079390D01*
X258413095Y-56079390D02*
X258413095Y-56460342D01*
X258413095Y-56460342D02*
X258460714Y-56555580D01*
X258460714Y-56555580D02*
X258508333Y-56603200D01*
X258508333Y-56603200D02*
X258603571Y-56650819D01*
X258603571Y-56650819D02*
X258794047Y-56650819D01*
X258794047Y-56650819D02*
X258889285Y-56603200D01*
X258889285Y-56603200D02*
X258936904Y-56555580D01*
X258936904Y-56555580D02*
X258984523Y-56460342D01*
X258984523Y-56460342D02*
X258984523Y-56222247D01*
X258984523Y-56222247D02*
X258936904Y-56127009D01*
X258936904Y-56127009D02*
X258889285Y-56079390D01*
X258889285Y-56079390D02*
X258794047Y-56031771D01*
X258794047Y-56031771D02*
X258603571Y-56031771D01*
X258603571Y-56031771D02*
X258508333Y-56079390D01*
X258508333Y-56079390D02*
X258460714Y-56127009D01*
X258460714Y-56127009D02*
X258413095Y-56222247D01*
X119634226Y-132803200D02*
X119777083Y-132850819D01*
X119777083Y-132850819D02*
X120015178Y-132850819D01*
X120015178Y-132850819D02*
X120110416Y-132803200D01*
X120110416Y-132803200D02*
X120158035Y-132755580D01*
X120158035Y-132755580D02*
X120205654Y-132660342D01*
X120205654Y-132660342D02*
X120205654Y-132565104D01*
X120205654Y-132565104D02*
X120158035Y-132469866D01*
X120158035Y-132469866D02*
X120110416Y-132422247D01*
X120110416Y-132422247D02*
X120015178Y-132374628D01*
X120015178Y-132374628D02*
X119824702Y-132327009D01*
X119824702Y-132327009D02*
X119729464Y-132279390D01*
X119729464Y-132279390D02*
X119681845Y-132231771D01*
X119681845Y-132231771D02*
X119634226Y-132136533D01*
X119634226Y-132136533D02*
X119634226Y-132041295D01*
X119634226Y-132041295D02*
X119681845Y-131946057D01*
X119681845Y-131946057D02*
X119729464Y-131898438D01*
X119729464Y-131898438D02*
X119824702Y-131850819D01*
X119824702Y-131850819D02*
X120062797Y-131850819D01*
X120062797Y-131850819D02*
X120205654Y-131898438D01*
X120538988Y-131850819D02*
X120777083Y-132850819D01*
X120777083Y-132850819D02*
X120967559Y-132136533D01*
X120967559Y-132136533D02*
X121158035Y-132850819D01*
X121158035Y-132850819D02*
X121396131Y-131850819D01*
X121729464Y-131946057D02*
X121777083Y-131898438D01*
X121777083Y-131898438D02*
X121872321Y-131850819D01*
X121872321Y-131850819D02*
X122110416Y-131850819D01*
X122110416Y-131850819D02*
X122205654Y-131898438D01*
X122205654Y-131898438D02*
X122253273Y-131946057D01*
X122253273Y-131946057D02*
X122300892Y-132041295D01*
X122300892Y-132041295D02*
X122300892Y-132136533D01*
X122300892Y-132136533D02*
X122253273Y-132279390D01*
X122253273Y-132279390D02*
X121681845Y-132850819D01*
X121681845Y-132850819D02*
X122300892Y-132850819D01*
X123205654Y-131850819D02*
X122729464Y-131850819D01*
X122729464Y-131850819D02*
X122681845Y-132327009D01*
X122681845Y-132327009D02*
X122729464Y-132279390D01*
X122729464Y-132279390D02*
X122824702Y-132231771D01*
X122824702Y-132231771D02*
X123062797Y-132231771D01*
X123062797Y-132231771D02*
X123158035Y-132279390D01*
X123158035Y-132279390D02*
X123205654Y-132327009D01*
X123205654Y-132327009D02*
X123253273Y-132422247D01*
X123253273Y-132422247D02*
X123253273Y-132660342D01*
X123253273Y-132660342D02*
X123205654Y-132755580D01*
X123205654Y-132755580D02*
X123158035Y-132803200D01*
X123158035Y-132803200D02*
X123062797Y-132850819D01*
X123062797Y-132850819D02*
X122824702Y-132850819D01*
X122824702Y-132850819D02*
X122729464Y-132803200D01*
X122729464Y-132803200D02*
X122681845Y-132755580D01*
X-15971904Y-154924819D02*
X-15971904Y-153924819D01*
X-15971904Y-154401009D02*
X-15400476Y-154401009D01*
X-15400476Y-154924819D02*
X-15400476Y-153924819D01*
X-15019523Y-153924819D02*
X-14352857Y-153924819D01*
X-14352857Y-153924819D02*
X-14781428Y-154924819D01*
X-15521904Y-84424819D02*
X-15521904Y-83424819D01*
X-15521904Y-83901009D02*
X-14950476Y-83901009D01*
X-14950476Y-84424819D02*
X-14950476Y-83424819D01*
X-13998095Y-83424819D02*
X-14474285Y-83424819D01*
X-14474285Y-83424819D02*
X-14521904Y-83901009D01*
X-14521904Y-83901009D02*
X-14474285Y-83853390D01*
X-14474285Y-83853390D02*
X-14379047Y-83805771D01*
X-14379047Y-83805771D02*
X-14140952Y-83805771D01*
X-14140952Y-83805771D02*
X-14045714Y-83853390D01*
X-14045714Y-83853390D02*
X-13998095Y-83901009D01*
X-13998095Y-83901009D02*
X-13950476Y-83996247D01*
X-13950476Y-83996247D02*
X-13950476Y-84234342D01*
X-13950476Y-84234342D02*
X-13998095Y-84329580D01*
X-13998095Y-84329580D02*
X-14045714Y-84377200D01*
X-14045714Y-84377200D02*
X-14140952Y-84424819D01*
X-14140952Y-84424819D02*
X-14379047Y-84424819D01*
X-14379047Y-84424819D02*
X-14474285Y-84377200D01*
X-14474285Y-84377200D02*
X-14521904Y-84329580D01*
X-15761904Y-27304819D02*
X-15761904Y-26304819D01*
X-15761904Y-26781009D02*
X-15190476Y-26781009D01*
X-15190476Y-27304819D02*
X-15190476Y-26304819D01*
X-14571428Y-26733390D02*
X-14666666Y-26685771D01*
X-14666666Y-26685771D02*
X-14714285Y-26638152D01*
X-14714285Y-26638152D02*
X-14761904Y-26542914D01*
X-14761904Y-26542914D02*
X-14761904Y-26495295D01*
X-14761904Y-26495295D02*
X-14714285Y-26400057D01*
X-14714285Y-26400057D02*
X-14666666Y-26352438D01*
X-14666666Y-26352438D02*
X-14571428Y-26304819D01*
X-14571428Y-26304819D02*
X-14380952Y-26304819D01*
X-14380952Y-26304819D02*
X-14285714Y-26352438D01*
X-14285714Y-26352438D02*
X-14238095Y-26400057D01*
X-14238095Y-26400057D02*
X-14190476Y-26495295D01*
X-14190476Y-26495295D02*
X-14190476Y-26542914D01*
X-14190476Y-26542914D02*
X-14238095Y-26638152D01*
X-14238095Y-26638152D02*
X-14285714Y-26685771D01*
X-14285714Y-26685771D02*
X-14380952Y-26733390D01*
X-14380952Y-26733390D02*
X-14571428Y-26733390D01*
X-14571428Y-26733390D02*
X-14666666Y-26781009D01*
X-14666666Y-26781009D02*
X-14714285Y-26828628D01*
X-14714285Y-26828628D02*
X-14761904Y-26923866D01*
X-14761904Y-26923866D02*
X-14761904Y-27114342D01*
X-14761904Y-27114342D02*
X-14714285Y-27209580D01*
X-14714285Y-27209580D02*
X-14666666Y-27257200D01*
X-14666666Y-27257200D02*
X-14571428Y-27304819D01*
X-14571428Y-27304819D02*
X-14380952Y-27304819D01*
X-14380952Y-27304819D02*
X-14285714Y-27257200D01*
X-14285714Y-27257200D02*
X-14238095Y-27209580D01*
X-14238095Y-27209580D02*
X-14190476Y-27114342D01*
X-14190476Y-27114342D02*
X-14190476Y-26923866D01*
X-14190476Y-26923866D02*
X-14238095Y-26828628D01*
X-14238095Y-26828628D02*
X-14285714Y-26781009D01*
X-14285714Y-26781009D02*
X-14380952Y-26733390D01*
X10572917Y-113753200D02*
X10715774Y-113800819D01*
X10715774Y-113800819D02*
X10953869Y-113800819D01*
X10953869Y-113800819D02*
X11049107Y-113753200D01*
X11049107Y-113753200D02*
X11096726Y-113705580D01*
X11096726Y-113705580D02*
X11144345Y-113610342D01*
X11144345Y-113610342D02*
X11144345Y-113515104D01*
X11144345Y-113515104D02*
X11096726Y-113419866D01*
X11096726Y-113419866D02*
X11049107Y-113372247D01*
X11049107Y-113372247D02*
X10953869Y-113324628D01*
X10953869Y-113324628D02*
X10763393Y-113277009D01*
X10763393Y-113277009D02*
X10668155Y-113229390D01*
X10668155Y-113229390D02*
X10620536Y-113181771D01*
X10620536Y-113181771D02*
X10572917Y-113086533D01*
X10572917Y-113086533D02*
X10572917Y-112991295D01*
X10572917Y-112991295D02*
X10620536Y-112896057D01*
X10620536Y-112896057D02*
X10668155Y-112848438D01*
X10668155Y-112848438D02*
X10763393Y-112800819D01*
X10763393Y-112800819D02*
X11001488Y-112800819D01*
X11001488Y-112800819D02*
X11144345Y-112848438D01*
X11477679Y-112800819D02*
X11715774Y-113800819D01*
X11715774Y-113800819D02*
X11906250Y-113086533D01*
X11906250Y-113086533D02*
X12096726Y-113800819D01*
X12096726Y-113800819D02*
X12334822Y-112800819D01*
X13144345Y-112800819D02*
X12953869Y-112800819D01*
X12953869Y-112800819D02*
X12858631Y-112848438D01*
X12858631Y-112848438D02*
X12811012Y-112896057D01*
X12811012Y-112896057D02*
X12715774Y-113038914D01*
X12715774Y-113038914D02*
X12668155Y-113229390D01*
X12668155Y-113229390D02*
X12668155Y-113610342D01*
X12668155Y-113610342D02*
X12715774Y-113705580D01*
X12715774Y-113705580D02*
X12763393Y-113753200D01*
X12763393Y-113753200D02*
X12858631Y-113800819D01*
X12858631Y-113800819D02*
X13049107Y-113800819D01*
X13049107Y-113800819D02*
X13144345Y-113753200D01*
X13144345Y-113753200D02*
X13191964Y-113705580D01*
X13191964Y-113705580D02*
X13239583Y-113610342D01*
X13239583Y-113610342D02*
X13239583Y-113372247D01*
X13239583Y-113372247D02*
X13191964Y-113277009D01*
X13191964Y-113277009D02*
X13144345Y-113229390D01*
X13144345Y-113229390D02*
X13049107Y-113181771D01*
X13049107Y-113181771D02*
X12858631Y-113181771D01*
X12858631Y-113181771D02*
X12763393Y-113229390D01*
X12763393Y-113229390D02*
X12715774Y-113277009D01*
X12715774Y-113277009D02*
X12668155Y-113372247D01*
X252984226Y-94703200D02*
X253127083Y-94750819D01*
X253127083Y-94750819D02*
X253365178Y-94750819D01*
X253365178Y-94750819D02*
X253460416Y-94703200D01*
X253460416Y-94703200D02*
X253508035Y-94655580D01*
X253508035Y-94655580D02*
X253555654Y-94560342D01*
X253555654Y-94560342D02*
X253555654Y-94465104D01*
X253555654Y-94465104D02*
X253508035Y-94369866D01*
X253508035Y-94369866D02*
X253460416Y-94322247D01*
X253460416Y-94322247D02*
X253365178Y-94274628D01*
X253365178Y-94274628D02*
X253174702Y-94227009D01*
X253174702Y-94227009D02*
X253079464Y-94179390D01*
X253079464Y-94179390D02*
X253031845Y-94131771D01*
X253031845Y-94131771D02*
X252984226Y-94036533D01*
X252984226Y-94036533D02*
X252984226Y-93941295D01*
X252984226Y-93941295D02*
X253031845Y-93846057D01*
X253031845Y-93846057D02*
X253079464Y-93798438D01*
X253079464Y-93798438D02*
X253174702Y-93750819D01*
X253174702Y-93750819D02*
X253412797Y-93750819D01*
X253412797Y-93750819D02*
X253555654Y-93798438D01*
X253888988Y-93750819D02*
X254127083Y-94750819D01*
X254127083Y-94750819D02*
X254317559Y-94036533D01*
X254317559Y-94036533D02*
X254508035Y-94750819D01*
X254508035Y-94750819D02*
X254746131Y-93750819D01*
X255031845Y-93750819D02*
X255698511Y-93750819D01*
X255698511Y-93750819D02*
X255269940Y-94750819D01*
X256603273Y-94750819D02*
X256031845Y-94750819D01*
X256317559Y-94750819D02*
X256317559Y-93750819D01*
X256317559Y-93750819D02*
X256222321Y-93893676D01*
X256222321Y-93893676D02*
X256127083Y-93988914D01*
X256127083Y-93988914D02*
X256031845Y-94036533D01*
X336738095Y-154804819D02*
X336738095Y-153804819D01*
X336738095Y-154281009D02*
X337309523Y-154281009D01*
X337309523Y-154804819D02*
X337309523Y-153804819D01*
X338214285Y-153804819D02*
X338023809Y-153804819D01*
X338023809Y-153804819D02*
X337928571Y-153852438D01*
X337928571Y-153852438D02*
X337880952Y-153900057D01*
X337880952Y-153900057D02*
X337785714Y-154042914D01*
X337785714Y-154042914D02*
X337738095Y-154233390D01*
X337738095Y-154233390D02*
X337738095Y-154614342D01*
X337738095Y-154614342D02*
X337785714Y-154709580D01*
X337785714Y-154709580D02*
X337833333Y-154757200D01*
X337833333Y-154757200D02*
X337928571Y-154804819D01*
X337928571Y-154804819D02*
X338119047Y-154804819D01*
X338119047Y-154804819D02*
X338214285Y-154757200D01*
X338214285Y-154757200D02*
X338261904Y-154709580D01*
X338261904Y-154709580D02*
X338309523Y-154614342D01*
X338309523Y-154614342D02*
X338309523Y-154376247D01*
X338309523Y-154376247D02*
X338261904Y-154281009D01*
X338261904Y-154281009D02*
X338214285Y-154233390D01*
X338214285Y-154233390D02*
X338119047Y-154185771D01*
X338119047Y-154185771D02*
X337928571Y-154185771D01*
X337928571Y-154185771D02*
X337833333Y-154233390D01*
X337833333Y-154233390D02*
X337785714Y-154281009D01*
X337785714Y-154281009D02*
X337738095Y-154376247D01*
X160738095Y-154804819D02*
X160738095Y-153804819D01*
X160738095Y-154281009D02*
X161309523Y-154281009D01*
X161309523Y-154804819D02*
X161309523Y-153804819D01*
X162214285Y-154138152D02*
X162214285Y-154804819D01*
X161976190Y-153757200D02*
X161738095Y-154471485D01*
X161738095Y-154471485D02*
X162357142Y-154471485D01*
X336738095Y-81274819D02*
X336738095Y-80274819D01*
X336738095Y-80751009D02*
X337309523Y-80751009D01*
X337309523Y-81274819D02*
X337309523Y-80274819D01*
X337738095Y-80370057D02*
X337785714Y-80322438D01*
X337785714Y-80322438D02*
X337880952Y-80274819D01*
X337880952Y-80274819D02*
X338119047Y-80274819D01*
X338119047Y-80274819D02*
X338214285Y-80322438D01*
X338214285Y-80322438D02*
X338261904Y-80370057D01*
X338261904Y-80370057D02*
X338309523Y-80465295D01*
X338309523Y-80465295D02*
X338309523Y-80560533D01*
X338309523Y-80560533D02*
X338261904Y-80703390D01*
X338261904Y-80703390D02*
X337690476Y-81274819D01*
X337690476Y-81274819D02*
X338309523Y-81274819D01*
X160978095Y-26924819D02*
X160978095Y-25924819D01*
X160978095Y-26401009D02*
X161549523Y-26401009D01*
X161549523Y-26924819D02*
X161549523Y-25924819D01*
X162549523Y-26924819D02*
X161978095Y-26924819D01*
X162263809Y-26924819D02*
X162263809Y-25924819D01*
X162263809Y-25924819D02*
X162168571Y-26067676D01*
X162168571Y-26067676D02*
X162073333Y-26162914D01*
X162073333Y-26162914D02*
X161978095Y-26210533D01*
%TO.C,SW76*%
D11*
X250190000Y-57085000D02*
X264160000Y-57085000D01*
X250190000Y-71055000D02*
X250190000Y-57085000D01*
X264160000Y-57085000D02*
X264160000Y-71055000D01*
X264160000Y-71055000D02*
X250190000Y-71055000D01*
%TO.C,SW25*%
X114458750Y-133285000D02*
X128428750Y-133285000D01*
X114458750Y-147255000D02*
X114458750Y-133285000D01*
X128428750Y-133285000D02*
X128428750Y-147255000D01*
X128428750Y-147255000D02*
X114458750Y-147255000D01*
%TO.C,SW6*%
X4921250Y-114235000D02*
X18891250Y-114235000D01*
X4921250Y-128205000D02*
X4921250Y-114235000D01*
X18891250Y-114235000D02*
X18891250Y-128205000D01*
X18891250Y-128205000D02*
X4921250Y-128205000D01*
%TO.C,SW71*%
X247808750Y-95185000D02*
X261778750Y-95185000D01*
X247808750Y-109155000D02*
X247808750Y-95185000D01*
X261778750Y-95185000D02*
X261778750Y-109155000D01*
X261778750Y-109155000D02*
X247808750Y-109155000D01*
%TD*%
M02*
