M48
; DRILL file KiCad 10.0.5 date 2026-09-21T21:29:18
; FORMAT={-:-/ absolute / metric / decimal}
; #@! TF.CreationDate,2026-09-21T21:29:18+05:00
; #@! TF.GenerationSoftware,Kicad,Pcbnew,10.0.5
; #@! TF.FileFunction,NonPlated,1,2,NPTH
FMAT,2
METRIC
; #@! TA.AperFunction,NonPlated,NPTH,ComponentDrill
T1C1.700
; #@! TA.AperFunction,NonPlated,NPTH,ComponentDrill
T2C1.750
; #@! TA.AperFunction,NonPlated,NPTH,ComponentDrill
T3C1.850
; #@! TA.AperFunction,NonPlated,NPTH,ComponentDrill
T4C2.200
; #@! TA.AperFunction,NonPlated,NPTH,ComponentDrill
T5C3.050
; #@! TA.AperFunction,NonPlated,NPTH,ComponentDrill
T6C3.988
; #@! TA.AperFunction,NonPlated,NPTH,ComponentDrill
T7C4.000
%
G90
G05
T1
X6.826Y-121.22
X16.986Y-121.22
X116.364Y-140.27
X126.524Y-140.27
X249.714Y-102.17
X252.095Y-64.07
X259.874Y-102.17
X262.255Y-64.07
T2
X-5.08Y-45.0
X-5.08Y-64.05
X-2.699Y-140.25
X-0.318Y-83.1
X2.064Y-102.15
X5.08Y-45.0
X5.08Y-64.05
X7.461Y-140.25
X9.842Y-83.1
X12.224Y-102.15
X13.97Y-45.0
X13.97Y-64.05
X21.114Y-140.25
X23.495Y-83.1
X24.13Y-45.0
X24.13Y-64.05
X28.258Y-102.15
X31.274Y-140.25
X33.02Y-45.0
X33.02Y-64.05
X33.655Y-83.1
X37.782Y-121.2
X38.417Y-102.15
X42.545Y-83.1
X43.18Y-45.0
X43.18Y-64.05
X44.926Y-140.25
X47.307Y-102.15
X47.942Y-121.2
X52.07Y-45.0
X52.09Y-64.05
X52.705Y-83.1
X55.086Y-140.25
X56.832Y-121.2
X57.467Y-102.15
X61.595Y-83.1
X62.23Y-45.0
X62.25Y-64.05
X66.358Y-102.15
X66.992Y-121.2
X71.12Y-45.0
X71.12Y-64.05
X71.755Y-83.1
X75.882Y-121.2
X76.517Y-102.15
X80.645Y-83.1
X81.28Y-45.0
X81.28Y-64.05
X85.407Y-102.15
X86.042Y-121.2
X90.17Y-45.0
X90.17Y-64.05
X90.805Y-83.1
X94.932Y-121.2
X95.567Y-102.15
X99.695Y-83.1
X100.33Y-45.0
X100.33Y-64.05
X104.457Y-102.15
X105.093Y-121.2
X109.22Y-45.0
X109.22Y-64.05
X109.855Y-83.1
X113.983Y-121.2
X114.617Y-102.15
X118.745Y-83.1
X119.38Y-45.0
X119.38Y-64.05
X123.507Y-102.15
X124.142Y-121.2
X128.27Y-45.0
X128.27Y-64.05
X128.905Y-83.1
X133.032Y-121.2
X133.667Y-102.15
X137.795Y-83.1
X138.43Y-45.0
X138.43Y-64.05
X142.558Y-102.15
X143.192Y-121.2
X147.32Y-45.0
X147.32Y-64.05
X147.955Y-83.1
X152.082Y-121.2
X152.718Y-102.15
X156.845Y-83.1
X157.48Y-45.0
X157.48Y-64.05
X161.607Y-102.15
X162.243Y-121.2
X166.37Y-45.0
X166.37Y-64.05
X167.005Y-83.1
X171.132Y-121.2
X171.767Y-102.15
X175.895Y-83.1
X176.53Y-45.0
X176.53Y-64.05
X180.657Y-102.15
X181.292Y-121.2
X185.42Y-45.0
X185.42Y-64.05
X185.42Y-140.25
X186.055Y-83.1
X190.183Y-121.2
X190.817Y-102.15
X194.945Y-83.1
X195.58Y-45.0
X195.58Y-64.05
X195.58Y-140.25
X199.707Y-102.15
X200.343Y-121.2
X204.47Y-45.0
X204.47Y-64.05
X204.47Y-140.25
X205.105Y-83.1
X209.232Y-121.2
X209.867Y-102.15
X213.995Y-83.1
X214.63Y-45.0
X214.63Y-64.05
X214.63Y-140.25
X218.757Y-102.15
X219.392Y-121.2
X223.52Y-45.0
X223.52Y-64.05
X223.52Y-140.25
X224.155Y-83.1
X228.917Y-102.15
X233.045Y-83.1
X233.68Y-45.0
X233.68Y-64.05
X233.68Y-140.25
X235.426Y-121.2
X242.57Y-45.0
X242.57Y-140.25
X243.205Y-83.1
X245.586Y-121.2
X252.73Y-45.0
X252.73Y-140.25
X256.858Y-83.1
X261.62Y-45.0
X261.62Y-121.2
X261.62Y-140.25
X267.017Y-83.1
X271.78Y-45.0
X271.78Y-121.2
X271.78Y-140.25
X280.67Y-45.0
X280.67Y-64.05
X280.67Y-83.1
X280.67Y-102.15
X280.67Y-121.2
X280.67Y-140.25
X290.83Y-45.0
X290.83Y-64.05
X290.83Y-83.1
X290.83Y-102.15
X290.83Y-121.2
X290.83Y-140.25
T3
X310.075Y-27.53
X314.925Y-27.53
T4
X309.775Y-24.5
X315.225Y-24.5
T5
X0.006Y-114.22
X23.806Y-114.22
X71.444Y-133.27
X171.444Y-133.27
X242.894Y-95.17
X245.275Y-57.07
X266.694Y-95.17
X269.075Y-57.07
T6
X0.0Y-45.0
X0.0Y-64.05
X2.381Y-140.25
X4.763Y-83.1
X7.144Y-102.15
X19.05Y-45.0
X19.05Y-64.05
X26.194Y-140.25
X28.575Y-83.1
X33.337Y-102.15
X38.1Y-45.0
X38.1Y-64.05
X42.862Y-121.2
X47.625Y-83.1
X50.006Y-140.25
X52.387Y-102.15
X57.15Y-45.0
X57.17Y-64.05
X61.912Y-121.2
X66.675Y-83.1
X71.438Y-102.15
X76.2Y-45.0
X76.2Y-64.05
X80.962Y-121.2
X85.725Y-83.1
X90.487Y-102.15
X95.25Y-45.0
X95.25Y-64.05
X100.012Y-121.2
X104.775Y-83.1
X109.537Y-102.15
X114.3Y-45.0
X114.3Y-64.05
X119.062Y-121.2
X123.825Y-83.1
X128.588Y-102.15
X133.35Y-45.0
X133.35Y-64.05
X138.112Y-121.2
X142.875Y-83.1
X147.637Y-102.15
X152.4Y-45.0
X152.4Y-64.05
X157.162Y-121.2
X161.925Y-83.1
X166.688Y-102.15
X171.45Y-45.0
X171.45Y-64.05
X176.213Y-121.2
X180.975Y-83.1
X185.737Y-102.15
X190.5Y-45.0
X190.5Y-64.05
X190.5Y-140.25
X195.262Y-121.2
X200.025Y-83.1
X204.787Y-102.15
X209.55Y-45.0
X209.55Y-64.05
X209.55Y-140.25
X214.312Y-121.2
X219.075Y-83.1
X223.837Y-102.15
X228.6Y-45.0
X228.6Y-64.05
X228.6Y-140.25
X238.125Y-83.1
X240.506Y-121.2
X247.65Y-45.0
X247.65Y-140.25
X261.938Y-83.1
X266.7Y-45.0
X266.7Y-121.2
X266.7Y-140.25
X285.75Y-45.0
X285.75Y-64.05
X285.75Y-83.1
X285.75Y-102.15
X285.75Y-121.2
X285.75Y-140.25
T7
X0.006Y-129.46
X11.906Y-121.22
X23.806Y-129.46
X71.444Y-148.51
X121.444Y-140.27
X171.444Y-148.51
X242.894Y-110.41
X245.275Y-72.31
X254.794Y-102.17
X257.175Y-64.07
X266.694Y-110.41
X269.075Y-72.31
M30
