%TF.GenerationSoftware,KiCad,Pcbnew,10.0.5*%
%TF.CreationDate,2026-09-21T21:29:31+05:00*%
%TF.ProjectId,My Mechanical Keyboard,4d79204d-6563-4686-916e-6963616c204b,rev?*%
%TF.SameCoordinates,Original*%
%TF.FileFunction,Soldermask,Top*%
%TF.FilePolarity,Negative*%
%FSLAX46Y46*%
G04 Gerber Fmt 4.6, Leading zero omitted, Abs format (unit mm)*
G04 Created by KiCad (PCBNEW 10.0.5) date 2026-09-21 21:29:31*
%MOMM*%
%LPD*%
G01*
G04 APERTURE LIST*
G04 Aperture macros list*
%AMRoundRect*
0 Rectangle with rounded corners*
0 $1 Rounding radius*
0 $2 $3 $4 $5 $6 $7 $8 $9 X,Y pos of 4 corners*
0 Add a 4 corners polygon primitive as box body*
4,1,4,$2,$3,$4,$5,$6,$7,$8,$9,$2,$3,0*
0 Add four circle primitives for the rounded corners*
1,1,$1+$1,$2,$3*
1,1,$1+$1,$4,$5*
1,1,$1+$1,$6,$7*
1,1,$1+$1,$8,$9*
0 Add four rect primitives between the rounded corners*
20,1,$1+$1,$2,$3,$4,$5,0*
20,1,$1+$1,$4,$5,$6,$7,0*
20,1,$1+$1,$6,$7,$8,$9,0*
20,1,$1+$1,$8,$9,$2,$3,0*%
G04 Aperture macros list end*
%ADD10C,1.750000*%
%ADD11C,3.987800*%
%ADD12C,4.400000*%
%ADD13C,3.050000*%
%ADD14C,4.000000*%
%ADD15C,1.700000*%
%ADD16C,2.200000*%
%ADD17RoundRect,0.250000X0.550000X0.550000X-0.550000X0.550000X-0.550000X-0.550000X0.550000X-0.550000X0*%
%ADD18C,1.600000*%
%ADD19RoundRect,0.250000X-0.550000X0.550000X-0.550000X-0.550000X0.550000X-0.550000X0.550000X0.550000X0*%
%ADD20C,1.850000*%
%ADD21RoundRect,0.250000X0.550000X-0.550000X0.550000X0.550000X-0.550000X0.550000X-0.550000X-0.550000X0*%
%ADD22R,1.700000X1.700000*%
%ADD23R,2.000000X2.000000*%
%ADD24C,2.000000*%
%ADD25R,3.200000X2.000000*%
G04 APERTURE END LIST*
D10*
%TO.C,SW63*%
X204470000Y-64050000D03*
D11*
X209550000Y-64050000D03*
D10*
X214630000Y-64050000D03*
%TD*%
%TO.C,SW50*%
X147320000Y-45000000D03*
D11*
X152400000Y-45000000D03*
D10*
X157480000Y-45000000D03*
%TD*%
%TO.C,SW57*%
X185420000Y-64050000D03*
D11*
X190500000Y-64050000D03*
D10*
X195580000Y-64050000D03*
%TD*%
%TO.C,SW81*%
X280670000Y-45000000D03*
D11*
X285750000Y-45000000D03*
D10*
X290830000Y-45000000D03*
%TD*%
%TO.C,SW8*%
X13970000Y-45000000D03*
D11*
X19050000Y-45000000D03*
D10*
X24130000Y-45000000D03*
%TD*%
%TO.C,SW36*%
X123507500Y-102150000D03*
D11*
X128587500Y-102150000D03*
D10*
X133667500Y-102150000D03*
%TD*%
%TO.C,SW20*%
X52070000Y-45000000D03*
D11*
X57150000Y-45000000D03*
D10*
X62230000Y-45000000D03*
%TD*%
D12*
%TO.C,H3*%
X337500000Y-30000000D03*
%TD*%
D10*
%TO.C,SW23*%
X66357500Y-102150000D03*
D11*
X71437500Y-102150000D03*
D10*
X76517500Y-102150000D03*
%TD*%
D13*
%TO.C,SW76*%
X245275000Y-57070000D03*
D14*
X245275000Y-72310000D03*
D15*
X252095000Y-64070000D03*
D14*
X257175000Y-64070000D03*
D15*
X262255000Y-64070000D03*
D13*
X269075000Y-57070000D03*
D14*
X269075000Y-72310000D03*
D16*
X259715000Y-58990000D03*
X253365000Y-61530000D03*
%TD*%
D10*
%TO.C,SW34*%
X99695000Y-83100000D03*
D11*
X104775000Y-83100000D03*
D10*
X109855000Y-83100000D03*
%TD*%
%TO.C,SW9*%
X13970000Y-64050000D03*
D11*
X19050000Y-64050000D03*
D10*
X24130000Y-64050000D03*
%TD*%
%TO.C,SW38*%
X109220000Y-45000000D03*
D11*
X114300000Y-45000000D03*
D10*
X119380000Y-45000000D03*
%TD*%
D13*
%TO.C,SW25*%
X71443750Y-133270000D03*
D14*
X71443750Y-148510000D03*
D15*
X116363750Y-140270000D03*
D14*
X121443750Y-140270000D03*
D15*
X126523750Y-140270000D03*
D13*
X171443750Y-133270000D03*
D14*
X171443750Y-148510000D03*
D16*
X123983750Y-135190000D03*
X117633750Y-137730000D03*
%TD*%
D10*
%TO.C,SW67*%
X223520000Y-140250000D03*
D11*
X228600000Y-140250000D03*
D10*
X233680000Y-140250000D03*
%TD*%
D12*
%TO.C,H7*%
X-15000000Y-157500000D03*
%TD*%
%TO.C,H5*%
X-15000000Y-87500000D03*
%TD*%
D10*
%TO.C,SW24*%
X75882500Y-121200000D03*
D11*
X80962500Y-121200000D03*
D10*
X86042500Y-121200000D03*
%TD*%
%TO.C,SW75*%
X242570000Y-45000000D03*
D11*
X247650000Y-45000000D03*
D10*
X252730000Y-45000000D03*
%TD*%
%TO.C,SW19*%
X44926250Y-140250000D03*
D11*
X50006250Y-140250000D03*
D10*
X55086250Y-140250000D03*
%TD*%
%TO.C,SW85*%
X280670000Y-140250000D03*
D11*
X285750000Y-140250000D03*
D10*
X290830000Y-140250000D03*
%TD*%
%TO.C,SW5*%
X2063750Y-102150000D03*
D11*
X7143750Y-102150000D03*
D10*
X12223750Y-102150000D03*
%TD*%
D12*
%TO.C,H8*%
X-15000000Y-30000000D03*
%TD*%
D10*
%TO.C,SW14*%
X33020000Y-45000000D03*
D11*
X38100000Y-45000000D03*
D10*
X43180000Y-45000000D03*
%TD*%
%TO.C,SW77*%
X256857500Y-83100000D03*
D11*
X261937500Y-83100000D03*
D10*
X267017500Y-83100000D03*
%TD*%
%TO.C,SW83*%
X280670000Y-83100000D03*
D11*
X285750000Y-83100000D03*
D10*
X290830000Y-83100000D03*
%TD*%
%TO.C,SW17*%
X47307500Y-102150000D03*
D11*
X52387500Y-102150000D03*
D10*
X57467500Y-102150000D03*
%TD*%
%TO.C,SW65*%
X218757500Y-102150000D03*
D11*
X223837500Y-102150000D03*
D10*
X228917500Y-102150000D03*
%TD*%
%TO.C,SW82*%
X280670000Y-64050000D03*
D11*
X285750000Y-64050000D03*
D10*
X290830000Y-64050000D03*
%TD*%
%TO.C,SW84*%
X280670000Y-102150000D03*
D11*
X285750000Y-102150000D03*
D10*
X290830000Y-102150000D03*
%TD*%
%TO.C,SW60*%
X209232500Y-121200000D03*
D11*
X214312500Y-121200000D03*
D10*
X219392500Y-121200000D03*
%TD*%
%TO.C,SW26*%
X71120000Y-45000000D03*
D11*
X76200000Y-45000000D03*
D10*
X81280000Y-45000000D03*
%TD*%
%TO.C,SW16*%
X42545000Y-83100000D03*
D11*
X47625000Y-83100000D03*
D10*
X52705000Y-83100000D03*
%TD*%
%TO.C,SW10*%
X23495000Y-83100000D03*
D11*
X28575000Y-83100000D03*
D10*
X33655000Y-83100000D03*
%TD*%
%TO.C,SW72*%
X261620000Y-121200000D03*
D11*
X266700000Y-121200000D03*
D10*
X271780000Y-121200000D03*
%TD*%
%TO.C,SW66*%
X235426250Y-121200000D03*
D11*
X240506250Y-121200000D03*
D10*
X245586250Y-121200000D03*
%TD*%
%TO.C,SW15*%
X33020000Y-64050000D03*
D11*
X38100000Y-64050000D03*
D10*
X43180000Y-64050000D03*
%TD*%
%TO.C,SW46*%
X147320000Y-64050000D03*
D11*
X152400000Y-64050000D03*
D10*
X157480000Y-64050000D03*
%TD*%
%TO.C,SW62*%
X185420000Y-45000000D03*
D11*
X190500000Y-45000000D03*
D10*
X195580000Y-45000000D03*
%TD*%
%TO.C,SW40*%
X118745000Y-83100000D03*
D11*
X123825000Y-83100000D03*
D10*
X128905000Y-83100000D03*
%TD*%
%TO.C,SW35*%
X104457500Y-102150000D03*
D11*
X109537500Y-102150000D03*
D10*
X114617500Y-102150000D03*
%TD*%
%TO.C,SW45*%
X128270000Y-64050000D03*
D11*
X133350000Y-64050000D03*
D10*
X138430000Y-64050000D03*
%TD*%
%TO.C,SW55*%
X185420000Y-140250000D03*
D11*
X190500000Y-140250000D03*
D10*
X195580000Y-140250000D03*
%TD*%
%TO.C,SW74*%
X223520000Y-45000000D03*
D11*
X228600000Y-45000000D03*
D10*
X233680000Y-45000000D03*
%TD*%
%TO.C,SW39*%
X109220000Y-64050000D03*
D11*
X114300000Y-64050000D03*
D10*
X119380000Y-64050000D03*
%TD*%
%TO.C,SW48*%
X161607500Y-102150000D03*
D11*
X166687500Y-102150000D03*
D10*
X171767500Y-102150000D03*
%TD*%
D13*
%TO.C,SW6*%
X6250Y-114220000D03*
D14*
X6250Y-129460000D03*
D15*
X6826250Y-121220000D03*
D14*
X11906250Y-121220000D03*
D15*
X16986250Y-121220000D03*
D13*
X23806250Y-114220000D03*
D14*
X23806250Y-129460000D03*
D16*
X14446250Y-116140000D03*
X8096250Y-118680000D03*
%TD*%
D10*
%TO.C,SW68*%
X204470000Y-45000000D03*
D11*
X209550000Y-45000000D03*
D10*
X214630000Y-45000000D03*
%TD*%
D13*
%TO.C,SW71*%
X242893750Y-95170000D03*
D14*
X242893750Y-110410000D03*
D15*
X249713750Y-102170000D03*
D14*
X254793750Y-102170000D03*
D15*
X259873750Y-102170000D03*
D13*
X266693750Y-95170000D03*
D14*
X266693750Y-110410000D03*
D16*
X257333750Y-97090000D03*
X250983750Y-99630000D03*
%TD*%
D10*
%TO.C,SW7*%
X-2698750Y-140250000D03*
D11*
X2381250Y-140250000D03*
D10*
X7461250Y-140250000D03*
%TD*%
%TO.C,SW52*%
X175895000Y-83100000D03*
D11*
X180975000Y-83100000D03*
D10*
X186055000Y-83100000D03*
%TD*%
%TO.C,SW78*%
X280670000Y-121200000D03*
D11*
X285750000Y-121200000D03*
D10*
X290830000Y-121200000D03*
%TD*%
D12*
%TO.C,H6*%
X337500000Y-157500000D03*
%TD*%
D10*
%TO.C,SW3*%
X-5080000Y-64050000D03*
D11*
X0Y-64050000D03*
D10*
X5080000Y-64050000D03*
%TD*%
%TO.C,SW69*%
X223520000Y-64050000D03*
D11*
X228600000Y-64050000D03*
D10*
X233680000Y-64050000D03*
%TD*%
%TO.C,SW44*%
X128270000Y-45000000D03*
D11*
X133350000Y-45000000D03*
D10*
X138430000Y-45000000D03*
%TD*%
%TO.C,SW64*%
X213995000Y-83100000D03*
D11*
X219075000Y-83100000D03*
D10*
X224155000Y-83100000D03*
%TD*%
%TO.C,SW41*%
X137795000Y-83100000D03*
D11*
X142875000Y-83100000D03*
D10*
X147955000Y-83100000D03*
%TD*%
%TO.C,SW80*%
X261620000Y-45000000D03*
D11*
X266700000Y-45000000D03*
D10*
X271780000Y-45000000D03*
%TD*%
%TO.C,SW70*%
X233045000Y-83100000D03*
D11*
X238125000Y-83100000D03*
D10*
X243205000Y-83100000D03*
%TD*%
%TO.C,SW56*%
X166370000Y-45000000D03*
D11*
X171450000Y-45000000D03*
D10*
X176530000Y-45000000D03*
%TD*%
%TO.C,SW42*%
X142557500Y-102150000D03*
D11*
X147637500Y-102150000D03*
D10*
X152717500Y-102150000D03*
%TD*%
%TO.C,SW59*%
X199707500Y-102150000D03*
D11*
X204787500Y-102150000D03*
D10*
X209867500Y-102150000D03*
%TD*%
%TO.C,SW4*%
X-317500Y-83100000D03*
D11*
X4762500Y-83100000D03*
D10*
X9842500Y-83100000D03*
%TD*%
D12*
%TO.C,H4*%
X161500000Y-157500000D03*
%TD*%
D10*
%TO.C,SW22*%
X61595000Y-83100000D03*
D11*
X66675000Y-83100000D03*
D10*
X71755000Y-83100000D03*
%TD*%
%TO.C,SW32*%
X90170000Y-45000000D03*
D11*
X95250000Y-45000000D03*
D10*
X100330000Y-45000000D03*
%TD*%
%TO.C,SW43*%
X152082500Y-121200000D03*
D11*
X157162500Y-121200000D03*
D10*
X162242500Y-121200000D03*
%TD*%
%TO.C,SW18*%
X56832500Y-121200000D03*
D11*
X61912500Y-121200000D03*
D10*
X66992500Y-121200000D03*
%TD*%
%TO.C,SW2*%
X-5080000Y-45000000D03*
D11*
X0Y-45000000D03*
D10*
X5080000Y-45000000D03*
%TD*%
D12*
%TO.C,H2*%
X337500000Y-83970000D03*
%TD*%
D10*
%TO.C,SW13*%
X21113750Y-140250000D03*
D11*
X26193750Y-140250000D03*
D10*
X31273750Y-140250000D03*
%TD*%
%TO.C,SW73*%
X242570000Y-140250000D03*
D11*
X247650000Y-140250000D03*
D10*
X252730000Y-140250000D03*
%TD*%
%TO.C,SW51*%
X166370000Y-64050000D03*
D11*
X171450000Y-64050000D03*
D10*
X176530000Y-64050000D03*
%TD*%
%TO.C,SW30*%
X94932500Y-121200000D03*
D11*
X100012500Y-121200000D03*
D10*
X105092500Y-121200000D03*
%TD*%
%TO.C,SW28*%
X80645000Y-83100000D03*
D11*
X85725000Y-83100000D03*
D10*
X90805000Y-83100000D03*
%TD*%
%TO.C,SW31*%
X113982500Y-121200000D03*
D11*
X119062500Y-121200000D03*
D10*
X124142500Y-121200000D03*
%TD*%
%TO.C,SW37*%
X133032500Y-121200000D03*
D11*
X138112500Y-121200000D03*
D10*
X143192500Y-121200000D03*
%TD*%
%TO.C,SW21*%
X52090000Y-64050000D03*
D11*
X57170000Y-64050000D03*
D10*
X62250000Y-64050000D03*
%TD*%
%TO.C,SW33*%
X90170000Y-64050000D03*
D11*
X95250000Y-64050000D03*
D10*
X100330000Y-64050000D03*
%TD*%
%TO.C,SW54*%
X190182500Y-121200000D03*
D11*
X195262500Y-121200000D03*
D10*
X200342500Y-121200000D03*
%TD*%
%TO.C,SW27*%
X71120000Y-64050000D03*
D11*
X76200000Y-64050000D03*
D10*
X81280000Y-64050000D03*
%TD*%
%TO.C,SW61*%
X204470000Y-140250000D03*
D11*
X209550000Y-140250000D03*
D10*
X214630000Y-140250000D03*
%TD*%
%TO.C,SW79*%
X261620000Y-140250000D03*
D11*
X266700000Y-140250000D03*
D10*
X271780000Y-140250000D03*
%TD*%
%TO.C,SW53*%
X180657500Y-102150000D03*
D11*
X185737500Y-102150000D03*
D10*
X190817500Y-102150000D03*
%TD*%
D12*
%TO.C,H1*%
X161500000Y-30000000D03*
%TD*%
D10*
%TO.C,SW47*%
X156845000Y-83100000D03*
D11*
X161925000Y-83100000D03*
D10*
X167005000Y-83100000D03*
%TD*%
%TO.C,SW12*%
X37782500Y-121200000D03*
D11*
X42862500Y-121200000D03*
D10*
X47942500Y-121200000D03*
%TD*%
%TO.C,SW49*%
X171132500Y-121200000D03*
D11*
X176212500Y-121200000D03*
D10*
X181292500Y-121200000D03*
%TD*%
%TO.C,SW11*%
X28257500Y-102150000D03*
D11*
X33337500Y-102150000D03*
D10*
X38417500Y-102150000D03*
%TD*%
%TO.C,SW58*%
X194945000Y-83100000D03*
D11*
X200025000Y-83100000D03*
D10*
X205105000Y-83100000D03*
%TD*%
%TO.C,SW29*%
X85407500Y-102150000D03*
D11*
X90487500Y-102150000D03*
D10*
X95567500Y-102150000D03*
%TD*%
D17*
%TO.C,D80*%
X289120000Y-37500000D03*
D18*
X281500000Y-37500000D03*
%TD*%
D17*
%TO.C,D15*%
X51120000Y-75500000D03*
D18*
X43500000Y-75500000D03*
%TD*%
D17*
%TO.C,D67*%
X213620000Y-37500000D03*
D18*
X206000000Y-37500000D03*
%TD*%
D17*
%TO.C,D10*%
X35620000Y-94500000D03*
D18*
X28000000Y-94500000D03*
%TD*%
D17*
%TO.C,D40*%
X146120000Y-75500000D03*
D18*
X138500000Y-75500000D03*
%TD*%
D19*
%TO.C,D24*%
X113000000Y-137190000D03*
D18*
X113000000Y-144810000D03*
%TD*%
D17*
%TO.C,D26*%
X80120000Y-56500000D03*
D18*
X72500000Y-56500000D03*
%TD*%
D17*
%TO.C,D53*%
X199500000Y-113500000D03*
D18*
X191880000Y-113500000D03*
%TD*%
D19*
%TO.C,D76*%
X254500000Y-79690000D03*
D18*
X254500000Y-87310000D03*
%TD*%
D17*
%TO.C,D50*%
X175000000Y-56500000D03*
D18*
X167380000Y-56500000D03*
%TD*%
D17*
%TO.C,D48*%
X179500000Y-113500000D03*
D18*
X171880000Y-113500000D03*
%TD*%
D16*
%TO.C,A1*%
X315225000Y-24500000D03*
D20*
X314925000Y-27530000D03*
X310075000Y-27530000D03*
D16*
X309775000Y-24500000D03*
%TD*%
D17*
%TO.C,D78*%
X270810000Y-132500000D03*
D18*
X263190000Y-132500000D03*
%TD*%
D17*
%TO.C,D11*%
X46620000Y-113500000D03*
D18*
X39000000Y-113500000D03*
%TD*%
D17*
%TO.C,D59*%
X217500000Y-113500000D03*
D18*
X209880000Y-113500000D03*
%TD*%
D17*
%TO.C,D64*%
X227620000Y-94500000D03*
D18*
X220000000Y-94500000D03*
%TD*%
D17*
%TO.C,D19*%
X60620000Y-37500000D03*
D18*
X53000000Y-37500000D03*
%TD*%
D17*
%TO.C,D56*%
X194500000Y-56500000D03*
D18*
X186880000Y-56500000D03*
%TD*%
D17*
%TO.C,D57*%
X203000000Y-75500000D03*
D18*
X195380000Y-75500000D03*
%TD*%
D17*
%TO.C,D81*%
X289620000Y-56500000D03*
D18*
X282000000Y-56500000D03*
%TD*%
D17*
%TO.C,D79*%
X271120000Y-37500000D03*
D18*
X263500000Y-37500000D03*
%TD*%
D17*
%TO.C,D8*%
X23620000Y-56500000D03*
D18*
X16000000Y-56500000D03*
%TD*%
D17*
%TO.C,D61*%
X194310000Y-37500000D03*
D18*
X186690000Y-37500000D03*
%TD*%
D17*
%TO.C,D52*%
X189000000Y-94500000D03*
D18*
X181380000Y-94500000D03*
%TD*%
D17*
%TO.C,D34*%
X113310000Y-94500000D03*
D18*
X105690000Y-94500000D03*
%TD*%
D17*
%TO.C,D68*%
X232310000Y-56500000D03*
D18*
X224690000Y-56500000D03*
%TD*%
D17*
%TO.C,D60*%
X213500000Y-132500000D03*
D18*
X205880000Y-132500000D03*
%TD*%
D17*
%TO.C,D55*%
X175000000Y-37500000D03*
D18*
X167380000Y-37500000D03*
%TD*%
D21*
%TO.C,D65*%
X248000000Y-124810000D03*
D18*
X248000000Y-117190000D03*
%TD*%
D21*
%TO.C,D71*%
X274500000Y-125310000D03*
D18*
X274500000Y-117690000D03*
%TD*%
D17*
%TO.C,D25*%
X80120000Y-37500000D03*
D18*
X72500000Y-37500000D03*
%TD*%
D19*
%TO.C,D5*%
X3500000Y-117690000D03*
D18*
X3500000Y-125310000D03*
%TD*%
D17*
%TO.C,D32*%
X99120000Y-56500000D03*
D18*
X91500000Y-56500000D03*
%TD*%
D17*
%TO.C,D39*%
X127620000Y-75500000D03*
D18*
X120000000Y-75500000D03*
%TD*%
D17*
%TO.C,D38*%
X117620000Y-56500000D03*
D18*
X110000000Y-56500000D03*
%TD*%
D17*
%TO.C,D51*%
X184500000Y-75500000D03*
D18*
X176880000Y-75500000D03*
%TD*%
D17*
%TO.C,D13*%
X42120000Y-37000000D03*
D18*
X34500000Y-37000000D03*
%TD*%
D17*
%TO.C,D17*%
X65620000Y-113500000D03*
D18*
X58000000Y-113500000D03*
%TD*%
D17*
%TO.C,D45*%
X156620000Y-56500000D03*
D18*
X149000000Y-56500000D03*
%TD*%
D17*
%TO.C,D9*%
X32620000Y-75500000D03*
D18*
X25000000Y-75500000D03*
%TD*%
D21*
%TO.C,D6*%
X10500000Y-143500000D03*
D18*
X10500000Y-135880000D03*
%TD*%
D17*
%TO.C,D1*%
X3310000Y-37500000D03*
D18*
X-4310000Y-37500000D03*
%TD*%
D17*
%TO.C,D33*%
X108620000Y-75500000D03*
D18*
X101000000Y-75500000D03*
%TD*%
D22*
%TO.C,U2*%
X310000000Y-112750000D03*
D15*
X312540000Y-112750000D03*
X315080000Y-112750000D03*
X317620000Y-112750000D03*
%TD*%
D17*
%TO.C,D73*%
X232000000Y-37500000D03*
D18*
X224380000Y-37500000D03*
%TD*%
D17*
%TO.C,D29*%
X103620000Y-113500000D03*
D18*
X96000000Y-113500000D03*
%TD*%
D17*
%TO.C,D36*%
X141310000Y-113500000D03*
D18*
X133690000Y-113500000D03*
%TD*%
D17*
%TO.C,D63*%
X223120000Y-75500000D03*
D18*
X215500000Y-75500000D03*
%TD*%
D17*
%TO.C,D62*%
X213620000Y-56500000D03*
D18*
X206000000Y-56500000D03*
%TD*%
D17*
%TO.C,D41*%
X151310000Y-94500000D03*
D18*
X143690000Y-94500000D03*
%TD*%
D17*
%TO.C,D18*%
X53620000Y-132500000D03*
D18*
X46000000Y-132500000D03*
%TD*%
D17*
%TO.C,D82*%
X289810000Y-75500000D03*
D18*
X282190000Y-75500000D03*
%TD*%
D21*
%TO.C,D12*%
X34000000Y-143500000D03*
D18*
X34000000Y-135880000D03*
%TD*%
D17*
%TO.C,D35*%
X132120000Y-94500000D03*
D18*
X124500000Y-94500000D03*
%TD*%
D17*
%TO.C,D54*%
X194000000Y-132500000D03*
D18*
X186380000Y-132500000D03*
%TD*%
D17*
%TO.C,D16*%
X55620000Y-94500000D03*
D18*
X48000000Y-94500000D03*
%TD*%
D17*
%TO.C,D70*%
X257810000Y-94000000D03*
D18*
X250190000Y-94000000D03*
%TD*%
D17*
%TO.C,D69*%
X241500000Y-75500000D03*
D18*
X233880000Y-75500000D03*
%TD*%
D17*
%TO.C,D58*%
X207500000Y-94500000D03*
D18*
X199880000Y-94500000D03*
%TD*%
D17*
%TO.C,D30*%
X122120000Y-113500000D03*
D18*
X114500000Y-113500000D03*
%TD*%
D17*
%TO.C,D2*%
X4310000Y-56500000D03*
D18*
X-3310000Y-56500000D03*
%TD*%
D17*
%TO.C,D3*%
X9000000Y-75500000D03*
D18*
X1380000Y-75500000D03*
%TD*%
D17*
%TO.C,D72*%
X251120000Y-132500000D03*
D18*
X243500000Y-132500000D03*
%TD*%
D17*
%TO.C,D44*%
X137000000Y-56500000D03*
D18*
X129380000Y-56500000D03*
%TD*%
D17*
%TO.C,D74*%
X251620000Y-37500000D03*
D18*
X244000000Y-37500000D03*
%TD*%
D17*
%TO.C,D46*%
X165500000Y-75500000D03*
D18*
X157880000Y-75500000D03*
%TD*%
D17*
%TO.C,D43*%
X137310000Y-37500000D03*
D18*
X129690000Y-37500000D03*
%TD*%
D17*
%TO.C,D84*%
X289620000Y-132500000D03*
D18*
X282000000Y-132500000D03*
%TD*%
D17*
%TO.C,D77*%
X289620000Y-113500000D03*
D18*
X282000000Y-113500000D03*
%TD*%
D23*
%TO.C,SW1*%
X307500000Y-90600000D03*
D24*
X307500000Y-85600000D03*
X307500000Y-88100000D03*
D25*
X315000000Y-82500000D03*
X315000000Y-93700000D03*
D24*
X322000000Y-85600000D03*
X322000000Y-90600000D03*
%TD*%
D17*
%TO.C,D21*%
X70810000Y-75500000D03*
D18*
X63190000Y-75500000D03*
%TD*%
D17*
%TO.C,D7*%
X24120000Y-37500000D03*
D18*
X16500000Y-37500000D03*
%TD*%
D17*
%TO.C,D66*%
X232310000Y-132500000D03*
D18*
X224690000Y-132500000D03*
%TD*%
D17*
%TO.C,D4*%
X11120000Y-94500000D03*
D18*
X3500000Y-94500000D03*
%TD*%
D17*
%TO.C,D83*%
X289000000Y-94500000D03*
D18*
X281380000Y-94500000D03*
%TD*%
D17*
%TO.C,D47*%
X170620000Y-94500000D03*
D18*
X163000000Y-94500000D03*
%TD*%
D17*
%TO.C,D37*%
X118120000Y-37500000D03*
D18*
X110500000Y-37500000D03*
%TD*%
D17*
%TO.C,D23*%
X85120000Y-113500000D03*
D18*
X77500000Y-113500000D03*
%TD*%
D17*
%TO.C,D75*%
X261000000Y-55500000D03*
D18*
X253380000Y-55500000D03*
%TD*%
D17*
%TO.C,D27*%
X89620000Y-75500000D03*
D18*
X82000000Y-75500000D03*
%TD*%
D17*
%TO.C,D20*%
X61120000Y-56500000D03*
D18*
X53500000Y-56500000D03*
%TD*%
D17*
%TO.C,D14*%
X41620000Y-56500000D03*
D18*
X34000000Y-56500000D03*
%TD*%
D17*
%TO.C,D49*%
X155500000Y-37500000D03*
D18*
X147880000Y-37500000D03*
%TD*%
D17*
%TO.C,D28*%
X94120000Y-94500000D03*
D18*
X86500000Y-94500000D03*
%TD*%
D17*
%TO.C,D31*%
X98810000Y-37500000D03*
D18*
X91190000Y-37500000D03*
%TD*%
D17*
%TO.C,D42*%
X161310000Y-113500000D03*
D18*
X153690000Y-113500000D03*
%TD*%
D17*
%TO.C,D22*%
X74620000Y-94500000D03*
D18*
X67000000Y-94500000D03*
%TD*%
M02*
