%TF.GenerationSoftware,KiCad,Pcbnew,10.0.5*%
%TF.CreationDate,2026-09-21T21:29:31+05:00*%
%TF.ProjectId,My Mechanical Keyboard,4d79204d-6563-4686-916e-6963616c204b,rev?*%
%TF.SameCoordinates,Original*%
%TF.FileFunction,Copper,L1,Top*%
%TF.FilePolarity,Positive*%
%FSLAX46Y46*%
G04 Gerber Fmt 4.6, Leading zero omitted, Abs format (unit mm)*
G04 Created by KiCad (PCBNEW 10.0.5) date 2026-09-21 21:29:31*
%MOMM*%
%LPD*%
G01*
G04 APERTURE LIST*
G04 Aperture macros list*
%AMRoundRect*
0 Rectangle with rounded corners*
0 $1 Rounding radius*
0 $2 $3 $4 $5 $6 $7 $8 $9 X,Y pos of 4 corners*
0 Add a 4 corners polygon primitive as box body*
4,1,4,$2,$3,$4,$5,$6,$7,$8,$9,$2,$3,0*
0 Add four circle primitives for the rounded corners*
1,1,$1+$1,$2,$3*
1,1,$1+$1,$4,$5*
1,1,$1+$1,$6,$7*
1,1,$1+$1,$8,$9*
0 Add four rect primitives between the rounded corners*
20,1,$1+$1,$2,$3,$4,$5,0*
20,1,$1+$1,$4,$5,$6,$7,0*
20,1,$1+$1,$6,$7,$8,$9,0*
20,1,$1+$1,$8,$9,$2,$3,0*%
G04 Aperture macros list end*
%TA.AperFunction,ComponentPad*%
%ADD10C,2.300000*%
%TD*%
%TA.AperFunction,ComponentPad*%
%ADD11C,4.400000*%
%TD*%
%TA.AperFunction,ComponentPad*%
%ADD12C,2.200000*%
%TD*%
%TA.AperFunction,ComponentPad*%
%ADD13RoundRect,0.250000X0.550000X0.550000X-0.550000X0.550000X-0.550000X-0.550000X0.550000X-0.550000X0*%
%TD*%
%TA.AperFunction,ComponentPad*%
%ADD14C,1.600000*%
%TD*%
%TA.AperFunction,ComponentPad*%
%ADD15RoundRect,0.250000X-0.550000X0.550000X-0.550000X-0.550000X0.550000X-0.550000X0.550000X0.550000X0*%
%TD*%
%TA.AperFunction,ComponentPad*%
%ADD16RoundRect,0.250000X0.550000X-0.550000X0.550000X0.550000X-0.550000X0.550000X-0.550000X-0.550000X0*%
%TD*%
%TA.AperFunction,ComponentPad*%
%ADD17R,1.700000X1.700000*%
%TD*%
%TA.AperFunction,ComponentPad*%
%ADD18C,1.700000*%
%TD*%
%TA.AperFunction,ComponentPad*%
%ADD19R,2.000000X2.000000*%
%TD*%
%TA.AperFunction,ComponentPad*%
%ADD20C,2.000000*%
%TD*%
%TA.AperFunction,ComponentPad*%
%ADD21R,3.200000X2.000000*%
%TD*%
%TA.AperFunction,ViaPad*%
%ADD22C,0.600000*%
%TD*%
%TA.AperFunction,Conductor*%
%ADD23C,0.200000*%
%TD*%
G04 APERTURE END LIST*
D10*
%TO.P,SW63,1,1_1*%
%TO.N,/Col 11*%
X205740000Y-61510000D03*
%TO.P,SW63,2,2_2*%
%TO.N,Net-(D62-K)*%
X212090000Y-58970000D03*
%TD*%
%TO.P,SW50,1,1_1*%
%TO.N,/Col 9*%
X148590000Y-42460000D03*
%TO.P,SW50,2,2_2*%
%TO.N,Net-(D49-K)*%
X154940000Y-39920000D03*
%TD*%
%TO.P,SW57,1,1_1*%
%TO.N,/Col 10*%
X186690000Y-61510000D03*
%TO.P,SW57,2,2_2*%
%TO.N,Net-(D56-K)*%
X193040000Y-58970000D03*
%TD*%
%TO.P,SW81,1,1_1*%
%TO.N,/Col 14*%
X281940000Y-42460000D03*
%TO.P,SW81,2,2_2*%
%TO.N,Net-(D80-K)*%
X288290000Y-39920000D03*
%TD*%
%TO.P,SW8,1,1_1*%
%TO.N,/Col 2*%
X15240000Y-42460000D03*
%TO.P,SW8,2,2_2*%
%TO.N,Net-(D7-K)*%
X21590000Y-39920000D03*
%TD*%
%TO.P,SW36,1,1_1*%
%TO.N,/Col 6*%
X124777500Y-99610000D03*
%TO.P,SW36,2,2_2*%
%TO.N,Net-(D35-K)*%
X131127500Y-97070000D03*
%TD*%
%TO.P,SW20,1,1_1*%
%TO.N,/Col 4*%
X53340000Y-42460000D03*
%TO.P,SW20,2,2_2*%
%TO.N,Net-(D19-K)*%
X59690000Y-39920000D03*
%TD*%
D11*
%TO.P,H3,1*%
%TO.N,N/C*%
X337500000Y-30000000D03*
%TD*%
D10*
%TO.P,SW23,1,1_1*%
%TO.N,/Col 4*%
X67627500Y-99610000D03*
%TO.P,SW23,2,2_2*%
%TO.N,Net-(D22-K)*%
X73977500Y-97070000D03*
%TD*%
D12*
%TO.P,SW76,1,1_1*%
%TO.N,/Col 13*%
X259715000Y-58990000D03*
%TO.P,SW76,2,2_2*%
%TO.N,Net-(D75-K)*%
X253365000Y-61530000D03*
%TD*%
D10*
%TO.P,SW34,1,1_1*%
%TO.N,/Col 6*%
X100965000Y-80560000D03*
%TO.P,SW34,2,2_2*%
%TO.N,Net-(D33-K)*%
X107315000Y-78020000D03*
%TD*%
%TO.P,SW9,1,1_1*%
%TO.N,/Col 2*%
X15240000Y-61510000D03*
%TO.P,SW9,2,2_2*%
%TO.N,Net-(D8-K)*%
X21590000Y-58970000D03*
%TD*%
%TO.P,SW38,1,1_1*%
%TO.N,/Col 7*%
X110490000Y-42460000D03*
%TO.P,SW38,2,2_2*%
%TO.N,Net-(D37-K)*%
X116840000Y-39920000D03*
%TD*%
D12*
%TO.P,SW25,1,1_1*%
%TO.N,/Col 4*%
X123983750Y-135190000D03*
%TO.P,SW25,2,2_2*%
%TO.N,Net-(D24-K)*%
X117633750Y-137730000D03*
%TD*%
D10*
%TO.P,SW67,1,1_1*%
%TO.N,/Col 11*%
X224790000Y-137710000D03*
%TO.P,SW67,2,2_2*%
%TO.N,Net-(D66-K)*%
X231140000Y-135170000D03*
%TD*%
D11*
%TO.P,H7,1*%
%TO.N,N/C*%
X-15000000Y-157500000D03*
%TD*%
%TO.P,H5,1*%
%TO.N,N/C*%
X-15000000Y-87500000D03*
%TD*%
D10*
%TO.P,SW24,1,1_1*%
%TO.N,/Col 4*%
X77152500Y-118660000D03*
%TO.P,SW24,2,2_2*%
%TO.N,Net-(D23-K)*%
X83502500Y-116120000D03*
%TD*%
%TO.P,SW75,1,1_1*%
%TO.N,/Col 13*%
X243840000Y-42460000D03*
%TO.P,SW75,2,2_2*%
%TO.N,Net-(D74-K)*%
X250190000Y-39920000D03*
%TD*%
%TO.P,SW19,1,1_1*%
%TO.N,/Col 3*%
X46196250Y-137710000D03*
%TO.P,SW19,2,2_2*%
%TO.N,Net-(D18-K)*%
X52546250Y-135170000D03*
%TD*%
%TO.P,SW85,1,1_1*%
%TO.N,/Col 14*%
X281940000Y-137710000D03*
%TO.P,SW85,2,2_2*%
%TO.N,Net-(D84-K)*%
X288290000Y-135170000D03*
%TD*%
%TO.P,SW5,1,1_1*%
%TO.N,/Col 1*%
X3333750Y-99610000D03*
%TO.P,SW5,2,2_2*%
%TO.N,Net-(D4-K)*%
X9683750Y-97070000D03*
%TD*%
D11*
%TO.P,H8,1*%
%TO.N,N/C*%
X-15000000Y-30000000D03*
%TD*%
D10*
%TO.P,SW14,1,1_1*%
%TO.N,/Col 3*%
X34290000Y-42460000D03*
%TO.P,SW14,2,2_2*%
%TO.N,Net-(D13-K)*%
X40640000Y-39920000D03*
%TD*%
%TO.P,SW77,1,1_1*%
%TO.N,/Col 13*%
X258127500Y-80560000D03*
%TO.P,SW77,2,2_2*%
%TO.N,Net-(D76-K)*%
X264477500Y-78020000D03*
%TD*%
%TO.P,SW83,1,1_1*%
%TO.N,/Col 14*%
X281940000Y-80560000D03*
%TO.P,SW83,2,2_2*%
%TO.N,Net-(D82-K)*%
X288290000Y-78020000D03*
%TD*%
%TO.P,SW17,1,1_1*%
%TO.N,/Col 3*%
X48577500Y-99610000D03*
%TO.P,SW17,2,2_2*%
%TO.N,Net-(D16-K)*%
X54927500Y-97070000D03*
%TD*%
%TO.P,SW65,1,1_1*%
%TO.N,/Col 11*%
X220027500Y-99610000D03*
%TO.P,SW65,2,2_2*%
%TO.N,Net-(D64-K)*%
X226377500Y-97070000D03*
%TD*%
%TO.P,SW82,1,1_1*%
%TO.N,/Col 14*%
X281940000Y-61510000D03*
%TO.P,SW82,2,2_2*%
%TO.N,Net-(D81-K)*%
X288290000Y-58970000D03*
%TD*%
%TO.P,SW84,1,1_1*%
%TO.N,/Col 14*%
X281940000Y-99610000D03*
%TO.P,SW84,2,2_2*%
%TO.N,Net-(D83-K)*%
X288290000Y-97070000D03*
%TD*%
%TO.P,SW60,1,1_1*%
%TO.N,/Col 10*%
X210502500Y-118660000D03*
%TO.P,SW60,2,2_2*%
%TO.N,Net-(D59-K)*%
X216852500Y-116120000D03*
%TD*%
%TO.P,SW26,1,1_1*%
%TO.N,/Col 5*%
X72390000Y-42460000D03*
%TO.P,SW26,2,2_2*%
%TO.N,Net-(D25-K)*%
X78740000Y-39920000D03*
%TD*%
%TO.P,SW16,1,1_1*%
%TO.N,/Col 3*%
X43815000Y-80560000D03*
%TO.P,SW16,2,2_2*%
%TO.N,Net-(D15-K)*%
X50165000Y-78020000D03*
%TD*%
%TO.P,SW10,1,1_1*%
%TO.N,/Col 2*%
X24765000Y-80560000D03*
%TO.P,SW10,2,2_2*%
%TO.N,Net-(D9-K)*%
X31115000Y-78020000D03*
%TD*%
%TO.P,SW72,1,1_1*%
%TO.N,/Col 12*%
X262890000Y-118660000D03*
%TO.P,SW72,2,2_2*%
%TO.N,Net-(D71-K)*%
X269240000Y-116120000D03*
%TD*%
%TO.P,SW66,1,1_1*%
%TO.N,/Col 11*%
X236696250Y-118660000D03*
%TO.P,SW66,2,2_2*%
%TO.N,Net-(D65-K)*%
X243046250Y-116120000D03*
%TD*%
%TO.P,SW15,1,1_1*%
%TO.N,/Col 3*%
X34290000Y-61510000D03*
%TO.P,SW15,2,2_2*%
%TO.N,Net-(D14-K)*%
X40640000Y-58970000D03*
%TD*%
%TO.P,SW46,1,1_1*%
%TO.N,/Col 8*%
X148590000Y-61510000D03*
%TO.P,SW46,2,2_2*%
%TO.N,Net-(D45-K)*%
X154940000Y-58970000D03*
%TD*%
%TO.P,SW62,1,1_1*%
%TO.N,/Col 11*%
X186690000Y-42460000D03*
%TO.P,SW62,2,2_2*%
%TO.N,Net-(D61-K)*%
X193040000Y-39920000D03*
%TD*%
%TO.P,SW40,1,1_1*%
%TO.N,/Col 7*%
X120015000Y-80560000D03*
%TO.P,SW40,2,2_2*%
%TO.N,Net-(D39-K)*%
X126365000Y-78020000D03*
%TD*%
%TO.P,SW35,1,1_1*%
%TO.N,/Col 6*%
X105727500Y-99610000D03*
%TO.P,SW35,2,2_2*%
%TO.N,Net-(D34-K)*%
X112077500Y-97070000D03*
%TD*%
%TO.P,SW45,1,1_1*%
%TO.N,/Col 8*%
X129540000Y-61510000D03*
%TO.P,SW45,2,2_2*%
%TO.N,Net-(D44-K)*%
X135890000Y-58970000D03*
%TD*%
%TO.P,SW55,1,1_1*%
%TO.N,/Col 9*%
X186690000Y-137710000D03*
%TO.P,SW55,2,2_2*%
%TO.N,Net-(D54-K)*%
X193040000Y-135170000D03*
%TD*%
%TO.P,SW74,1,1_1*%
%TO.N,/Col 13*%
X224790000Y-42460000D03*
%TO.P,SW74,2,2_2*%
%TO.N,Net-(D73-K)*%
X231140000Y-39920000D03*
%TD*%
%TO.P,SW39,1,1_1*%
%TO.N,/Col 7*%
X110490000Y-61510000D03*
%TO.P,SW39,2,2_2*%
%TO.N,Net-(D38-K)*%
X116840000Y-58970000D03*
%TD*%
%TO.P,SW48,1,1_1*%
%TO.N,/Col 8*%
X162877500Y-99610000D03*
%TO.P,SW48,2,2_2*%
%TO.N,Net-(D47-K)*%
X169227500Y-97070000D03*
%TD*%
D12*
%TO.P,SW6,1,1_1*%
%TO.N,/Col 1*%
X14446250Y-116140000D03*
%TO.P,SW6,2,2_2*%
%TO.N,Net-(D5-K)*%
X8096250Y-118680000D03*
%TD*%
D10*
%TO.P,SW68,1,1_1*%
%TO.N,/Col 12*%
X205740000Y-42460000D03*
%TO.P,SW68,2,2_2*%
%TO.N,Net-(D67-K)*%
X212090000Y-39920000D03*
%TD*%
D12*
%TO.P,SW71,1,1_1*%
%TO.N,/Col 12*%
X257333750Y-97090000D03*
%TO.P,SW71,2,2_2*%
%TO.N,Net-(D70-K)*%
X250983750Y-99630000D03*
%TD*%
D10*
%TO.P,SW7,1,1_1*%
%TO.N,/Col 1*%
X-1428750Y-137710000D03*
%TO.P,SW7,2,2_2*%
%TO.N,Net-(D6-K)*%
X4921250Y-135170000D03*
%TD*%
%TO.P,SW52,1,1_1*%
%TO.N,/Col 9*%
X177165000Y-80560000D03*
%TO.P,SW52,2,2_2*%
%TO.N,Net-(D51-K)*%
X183515000Y-78020000D03*
%TD*%
%TO.P,SW78,1,1_1*%
%TO.N,/Col 13*%
X281940000Y-118660000D03*
%TO.P,SW78,2,2_2*%
%TO.N,Net-(D77-K)*%
X288290000Y-116120000D03*
%TD*%
D11*
%TO.P,H6,1*%
%TO.N,N/C*%
X337500000Y-157500000D03*
%TD*%
D10*
%TO.P,SW3,1,1_1*%
%TO.N,/Col 1*%
X-3810000Y-61510000D03*
%TO.P,SW3,2,2_2*%
%TO.N,Net-(D2-K)*%
X2540000Y-58970000D03*
%TD*%
%TO.P,SW69,1,1_1*%
%TO.N,/Col 12*%
X224790000Y-61510000D03*
%TO.P,SW69,2,2_2*%
%TO.N,Net-(D68-K)*%
X231140000Y-58970000D03*
%TD*%
%TO.P,SW44,1,1_1*%
%TO.N,/Col 8*%
X129540000Y-42460000D03*
%TO.P,SW44,2,2_2*%
%TO.N,Net-(D43-K)*%
X135890000Y-39920000D03*
%TD*%
%TO.P,SW64,1,1_1*%
%TO.N,/Col 11*%
X215265000Y-80560000D03*
%TO.P,SW64,2,2_2*%
%TO.N,Net-(D63-K)*%
X221615000Y-78020000D03*
%TD*%
%TO.P,SW41,1,1_1*%
%TO.N,/Col 7*%
X139065000Y-80560000D03*
%TO.P,SW41,2,2_2*%
%TO.N,Net-(D40-K)*%
X145415000Y-78020000D03*
%TD*%
%TO.P,SW80,1,1_1*%
%TO.N,/Col 14*%
X262890000Y-42460000D03*
%TO.P,SW80,2,2_2*%
%TO.N,Net-(D79-K)*%
X269240000Y-39920000D03*
%TD*%
%TO.P,SW70,1,1_1*%
%TO.N,/Col 12*%
X234315000Y-80560000D03*
%TO.P,SW70,2,2_2*%
%TO.N,Net-(D69-K)*%
X240665000Y-78020000D03*
%TD*%
%TO.P,SW56,1,1_1*%
%TO.N,/Col 10*%
X167640000Y-42460000D03*
%TO.P,SW56,2,2_2*%
%TO.N,Net-(D55-K)*%
X173990000Y-39920000D03*
%TD*%
%TO.P,SW42,1,1_1*%
%TO.N,/Col 7*%
X143827500Y-99610000D03*
%TO.P,SW42,2,2_2*%
%TO.N,Net-(D41-K)*%
X150177500Y-97070000D03*
%TD*%
%TO.P,SW59,1,1_1*%
%TO.N,/Col 10*%
X200977500Y-99610000D03*
%TO.P,SW59,2,2_2*%
%TO.N,Net-(D58-K)*%
X207327500Y-97070000D03*
%TD*%
%TO.P,SW4,1,1_1*%
%TO.N,/Col 1*%
X952500Y-80560000D03*
%TO.P,SW4,2,2_2*%
%TO.N,Net-(D3-K)*%
X7302500Y-78020000D03*
%TD*%
D11*
%TO.P,H4,1*%
%TO.N,N/C*%
X161500000Y-157500000D03*
%TD*%
D10*
%TO.P,SW22,1,1_1*%
%TO.N,/Col 4*%
X62865000Y-80560000D03*
%TO.P,SW22,2,2_2*%
%TO.N,Net-(D21-K)*%
X69215000Y-78020000D03*
%TD*%
%TO.P,SW32,1,1_1*%
%TO.N,/Col 6*%
X91440000Y-42460000D03*
%TO.P,SW32,2,2_2*%
%TO.N,Net-(D31-K)*%
X97790000Y-39920000D03*
%TD*%
%TO.P,SW43,1,1_1*%
%TO.N,/Col 7*%
X153352500Y-118660000D03*
%TO.P,SW43,2,2_2*%
%TO.N,Net-(D42-K)*%
X159702500Y-116120000D03*
%TD*%
%TO.P,SW18,1,1_1*%
%TO.N,/Col 3*%
X58102500Y-118660000D03*
%TO.P,SW18,2,2_2*%
%TO.N,Net-(D17-K)*%
X64452500Y-116120000D03*
%TD*%
%TO.P,SW2,1,1_1*%
%TO.N,/Col 1*%
X-3810000Y-42460000D03*
%TO.P,SW2,2,2_2*%
%TO.N,Net-(D1-K)*%
X2540000Y-39920000D03*
%TD*%
D11*
%TO.P,H2,1*%
%TO.N,N/C*%
X337500000Y-83970000D03*
%TD*%
D10*
%TO.P,SW13,1,1_1*%
%TO.N,/Col 2*%
X22383750Y-137710000D03*
%TO.P,SW13,2,2_2*%
%TO.N,Net-(D12-K)*%
X28733750Y-135170000D03*
%TD*%
%TO.P,SW73,1,1_1*%
%TO.N,/Col 12*%
X243840000Y-137710000D03*
%TO.P,SW73,2,2_2*%
%TO.N,Net-(D72-K)*%
X250190000Y-135170000D03*
%TD*%
%TO.P,SW51,1,1_1*%
%TO.N,/Col 9*%
X167640000Y-61510000D03*
%TO.P,SW51,2,2_2*%
%TO.N,Net-(D50-K)*%
X173990000Y-58970000D03*
%TD*%
%TO.P,SW30,1,1_1*%
%TO.N,/Col 5*%
X96202500Y-118660000D03*
%TO.P,SW30,2,2_2*%
%TO.N,Net-(D29-K)*%
X102552500Y-116120000D03*
%TD*%
%TO.P,SW28,1,1_1*%
%TO.N,/Col 5*%
X81915000Y-80560000D03*
%TO.P,SW28,2,2_2*%
%TO.N,Net-(D27-K)*%
X88265000Y-78020000D03*
%TD*%
%TO.P,SW31,1,1_1*%
%TO.N,/Col 5*%
X115252500Y-118660000D03*
%TO.P,SW31,2,2_2*%
%TO.N,Net-(D30-K)*%
X121602500Y-116120000D03*
%TD*%
%TO.P,SW37,1,1_1*%
%TO.N,/Col 6*%
X134302500Y-118660000D03*
%TO.P,SW37,2,2_2*%
%TO.N,Net-(D36-K)*%
X140652500Y-116120000D03*
%TD*%
%TO.P,SW21,1,1_1*%
%TO.N,/Col 4*%
X53360000Y-61510000D03*
%TO.P,SW21,2,2_2*%
%TO.N,Net-(D20-K)*%
X59710000Y-58970000D03*
%TD*%
%TO.P,SW33,1,1_1*%
%TO.N,/Col 6*%
X91440000Y-61510000D03*
%TO.P,SW33,2,2_2*%
%TO.N,Net-(D32-K)*%
X97790000Y-58970000D03*
%TD*%
%TO.P,SW54,1,1_1*%
%TO.N,/Col 9*%
X191452500Y-118660000D03*
%TO.P,SW54,2,2_2*%
%TO.N,Net-(D53-K)*%
X197802500Y-116120000D03*
%TD*%
%TO.P,SW27,1,1_1*%
%TO.N,/Col 5*%
X72390000Y-61510000D03*
%TO.P,SW27,2,2_2*%
%TO.N,Net-(D26-K)*%
X78740000Y-58970000D03*
%TD*%
%TO.P,SW61,1,1_1*%
%TO.N,/Col 10*%
X205740000Y-137710000D03*
%TO.P,SW61,2,2_2*%
%TO.N,Net-(D60-K)*%
X212090000Y-135170000D03*
%TD*%
%TO.P,SW79,1,1_1*%
%TO.N,/Col 13*%
X262890000Y-137710000D03*
%TO.P,SW79,2,2_2*%
%TO.N,Net-(D78-K)*%
X269240000Y-135170000D03*
%TD*%
%TO.P,SW53,1,1_1*%
%TO.N,/Col 9*%
X181927500Y-99610000D03*
%TO.P,SW53,2,2_2*%
%TO.N,Net-(D52-K)*%
X188277500Y-97070000D03*
%TD*%
D11*
%TO.P,H1,1*%
%TO.N,N/C*%
X161500000Y-30000000D03*
%TD*%
D10*
%TO.P,SW47,1,1_1*%
%TO.N,/Col 8*%
X158115000Y-80560000D03*
%TO.P,SW47,2,2_2*%
%TO.N,Net-(D46-K)*%
X164465000Y-78020000D03*
%TD*%
%TO.P,SW12,1,1_1*%
%TO.N,/Col 2*%
X39052500Y-118660000D03*
%TO.P,SW12,2,2_2*%
%TO.N,Net-(D11-K)*%
X45402500Y-116120000D03*
%TD*%
%TO.P,SW49,1,1_1*%
%TO.N,/Col 8*%
X172402500Y-118660000D03*
%TO.P,SW49,2,2_2*%
%TO.N,Net-(D48-K)*%
X178752500Y-116120000D03*
%TD*%
%TO.P,SW11,1,1_1*%
%TO.N,/Col 2*%
X29527500Y-99610000D03*
%TO.P,SW11,2,2_2*%
%TO.N,Net-(D10-K)*%
X35877500Y-97070000D03*
%TD*%
%TO.P,SW58,1,1_1*%
%TO.N,/Col 10*%
X196215000Y-80560000D03*
%TO.P,SW58,2,2_2*%
%TO.N,Net-(D57-K)*%
X202565000Y-78020000D03*
%TD*%
%TO.P,SW29,1,1_1*%
%TO.N,/Col 5*%
X86677500Y-99610000D03*
%TO.P,SW29,2,2_2*%
%TO.N,Net-(D28-K)*%
X93027500Y-97070000D03*
%TD*%
D13*
%TO.P,D80,1,K_1*%
%TO.N,Net-(D80-K)*%
X289120000Y-37500000D03*
D14*
%TO.P,D80,2,A_2*%
%TO.N,/Row 2*%
X281500000Y-37500000D03*
%TD*%
D13*
%TO.P,D15,1,K_1*%
%TO.N,Net-(D15-K)*%
X51120000Y-75500000D03*
D14*
%TO.P,D15,2,A_2*%
%TO.N,/Row 3*%
X43500000Y-75500000D03*
%TD*%
D13*
%TO.P,D67,1,K_1*%
%TO.N,Net-(D67-K)*%
X213620000Y-37500000D03*
D14*
%TO.P,D67,2,A_2*%
%TO.N,/Row 1*%
X206000000Y-37500000D03*
%TD*%
D13*
%TO.P,D10,1,K_1*%
%TO.N,Net-(D10-K)*%
X35620000Y-94500000D03*
D14*
%TO.P,D10,2,A_2*%
%TO.N,/Row 4*%
X28000000Y-94500000D03*
%TD*%
D13*
%TO.P,D40,1,K_1*%
%TO.N,Net-(D40-K)*%
X146120000Y-75500000D03*
D14*
%TO.P,D40,2,A_2*%
%TO.N,/Row 4*%
X138500000Y-75500000D03*
%TD*%
D15*
%TO.P,D24,1,K_1*%
%TO.N,Net-(D24-K)*%
X113000000Y-137190000D03*
D14*
%TO.P,D24,2,A_2*%
%TO.N,/Row 6*%
X113000000Y-144810000D03*
%TD*%
D13*
%TO.P,D26,1,K_1*%
%TO.N,Net-(D26-K)*%
X80120000Y-56500000D03*
D14*
%TO.P,D26,2,A_2*%
%TO.N,/Row 2*%
X72500000Y-56500000D03*
%TD*%
D13*
%TO.P,D53,1,K_1*%
%TO.N,Net-(D53-K)*%
X199500000Y-113500000D03*
D14*
%TO.P,D53,2,A_2*%
%TO.N,/Row 5*%
X191880000Y-113500000D03*
%TD*%
D15*
%TO.P,D76,1,K_1*%
%TO.N,Net-(D76-K)*%
X254500000Y-79690000D03*
D14*
%TO.P,D76,2,A_2*%
%TO.N,/Row 4*%
X254500000Y-87310000D03*
%TD*%
D13*
%TO.P,D50,1,K_1*%
%TO.N,Net-(D50-K)*%
X175000000Y-56500000D03*
D14*
%TO.P,D50,2,A_2*%
%TO.N,/Row 2*%
X167380000Y-56500000D03*
%TD*%
D13*
%TO.P,D48,1,K_1*%
%TO.N,Net-(D48-K)*%
X179500000Y-113500000D03*
D14*
%TO.P,D48,2,A_2*%
%TO.N,/Row 6*%
X171880000Y-113500000D03*
%TD*%
D13*
%TO.P,D78,1,K_1*%
%TO.N,Net-(D78-K)*%
X270810000Y-132500000D03*
D14*
%TO.P,D78,2,A_2*%
%TO.N,/Row 6*%
X263190000Y-132500000D03*
%TD*%
D13*
%TO.P,D11,1,K_1*%
%TO.N,Net-(D11-K)*%
X46620000Y-113500000D03*
D14*
%TO.P,D11,2,A_2*%
%TO.N,/Row 5*%
X39000000Y-113500000D03*
%TD*%
D13*
%TO.P,D59,1,K_1*%
%TO.N,Net-(D59-K)*%
X217500000Y-113500000D03*
D14*
%TO.P,D59,2,A_2*%
%TO.N,/Row 5*%
X209880000Y-113500000D03*
%TD*%
D13*
%TO.P,D64,1,K_1*%
%TO.N,Net-(D64-K)*%
X227620000Y-94500000D03*
D14*
%TO.P,D64,2,A_2*%
%TO.N,/Row 4*%
X220000000Y-94500000D03*
%TD*%
D13*
%TO.P,D19,1,K_1*%
%TO.N,Net-(D19-K)*%
X60620000Y-37500000D03*
D14*
%TO.P,D19,2,A_2*%
%TO.N,/Row 1*%
X53000000Y-37500000D03*
%TD*%
D13*
%TO.P,D56,1,K_1*%
%TO.N,Net-(D56-K)*%
X194500000Y-56500000D03*
D14*
%TO.P,D56,2,A_2*%
%TO.N,/Row 2*%
X186880000Y-56500000D03*
%TD*%
D13*
%TO.P,D57,1,K_1*%
%TO.N,Net-(D57-K)*%
X203000000Y-75500000D03*
D14*
%TO.P,D57,2,A_2*%
%TO.N,/Row 3*%
X195380000Y-75500000D03*
%TD*%
D13*
%TO.P,D81,1,K_1*%
%TO.N,Net-(D81-K)*%
X289620000Y-56500000D03*
D14*
%TO.P,D81,2,A_2*%
%TO.N,/Row 3*%
X282000000Y-56500000D03*
%TD*%
D13*
%TO.P,D79,1,K_1*%
%TO.N,Net-(D79-K)*%
X271120000Y-37500000D03*
D14*
%TO.P,D79,2,A_2*%
%TO.N,/Row 1*%
X263500000Y-37500000D03*
%TD*%
D13*
%TO.P,D8,1,K_1*%
%TO.N,Net-(D8-K)*%
X23620000Y-56500000D03*
D14*
%TO.P,D8,2,A_2*%
%TO.N,/Row 2*%
X16000000Y-56500000D03*
%TD*%
D13*
%TO.P,D61,1,K_1*%
%TO.N,Net-(D61-K)*%
X194310000Y-37500000D03*
D14*
%TO.P,D61,2,A_2*%
%TO.N,/Row 1*%
X186690000Y-37500000D03*
%TD*%
D13*
%TO.P,D52,1,K_1*%
%TO.N,Net-(D52-K)*%
X189000000Y-94500000D03*
D14*
%TO.P,D52,2,A_2*%
%TO.N,/Row 4*%
X181380000Y-94500000D03*
%TD*%
D13*
%TO.P,D34,1,K_1*%
%TO.N,Net-(D34-K)*%
X113310000Y-94500000D03*
D14*
%TO.P,D34,2,A_2*%
%TO.N,/Row 4*%
X105690000Y-94500000D03*
%TD*%
D13*
%TO.P,D68,1,K_1*%
%TO.N,Net-(D68-K)*%
X232310000Y-56500000D03*
D14*
%TO.P,D68,2,A_2*%
%TO.N,/Row 2*%
X224690000Y-56500000D03*
%TD*%
D13*
%TO.P,D60,1,K_1*%
%TO.N,Net-(D60-K)*%
X213500000Y-132500000D03*
D14*
%TO.P,D60,2,A_2*%
%TO.N,/Row 6*%
X205880000Y-132500000D03*
%TD*%
D13*
%TO.P,D55,1,K_1*%
%TO.N,Net-(D55-K)*%
X175000000Y-37500000D03*
D14*
%TO.P,D55,2,A_2*%
%TO.N,/Row 1*%
X167380000Y-37500000D03*
%TD*%
D16*
%TO.P,D65,1,K_1*%
%TO.N,Net-(D65-K)*%
X248000000Y-124810000D03*
D14*
%TO.P,D65,2,A_2*%
%TO.N,/Row 5*%
X248000000Y-117190000D03*
%TD*%
D16*
%TO.P,D71,1,K_1*%
%TO.N,Net-(D71-K)*%
X274500000Y-125310000D03*
D14*
%TO.P,D71,2,A_2*%
%TO.N,/Row 5*%
X274500000Y-117690000D03*
%TD*%
D13*
%TO.P,D25,1,K_1*%
%TO.N,Net-(D25-K)*%
X80120000Y-37500000D03*
D14*
%TO.P,D25,2,A_2*%
%TO.N,/Row 1*%
X72500000Y-37500000D03*
%TD*%
D15*
%TO.P,D5,1,K_1*%
%TO.N,Net-(D5-K)*%
X3500000Y-117690000D03*
D14*
%TO.P,D5,2,A_2*%
%TO.N,/Row 5*%
X3500000Y-125310000D03*
%TD*%
D13*
%TO.P,D32,1,K_1*%
%TO.N,Net-(D32-K)*%
X99120000Y-56500000D03*
D14*
%TO.P,D32,2,A_2*%
%TO.N,/Row 2*%
X91500000Y-56500000D03*
%TD*%
D13*
%TO.P,D39,1,K_1*%
%TO.N,Net-(D39-K)*%
X127620000Y-75500000D03*
D14*
%TO.P,D39,2,A_2*%
%TO.N,/Row 3*%
X120000000Y-75500000D03*
%TD*%
D13*
%TO.P,D38,1,K_1*%
%TO.N,Net-(D38-K)*%
X117620000Y-56500000D03*
D14*
%TO.P,D38,2,A_2*%
%TO.N,/Row 2*%
X110000000Y-56500000D03*
%TD*%
D13*
%TO.P,D51,1,K_1*%
%TO.N,Net-(D51-K)*%
X184500000Y-75500000D03*
D14*
%TO.P,D51,2,A_2*%
%TO.N,/Row 3*%
X176880000Y-75500000D03*
%TD*%
D13*
%TO.P,D13,1,K_1*%
%TO.N,Net-(D13-K)*%
X42120000Y-37000000D03*
D14*
%TO.P,D13,2,A_2*%
%TO.N,/Row 1*%
X34500000Y-37000000D03*
%TD*%
D13*
%TO.P,D17,1,K_1*%
%TO.N,Net-(D17-K)*%
X65620000Y-113500000D03*
D14*
%TO.P,D17,2,A_2*%
%TO.N,/Row 5*%
X58000000Y-113500000D03*
%TD*%
D13*
%TO.P,D45,1,K_1*%
%TO.N,Net-(D45-K)*%
X156620000Y-56500000D03*
D14*
%TO.P,D45,2,A_2*%
%TO.N,/Row 3*%
X149000000Y-56500000D03*
%TD*%
D13*
%TO.P,D9,1,K_1*%
%TO.N,Net-(D9-K)*%
X32620000Y-75500000D03*
D14*
%TO.P,D9,2,A_2*%
%TO.N,/Row 3*%
X25000000Y-75500000D03*
%TD*%
D16*
%TO.P,D6,1,K_1*%
%TO.N,Net-(D6-K)*%
X10500000Y-143500000D03*
D14*
%TO.P,D6,2,A_2*%
%TO.N,/Row 6*%
X10500000Y-135880000D03*
%TD*%
D13*
%TO.P,D1,1,K_1*%
%TO.N,Net-(D1-K)*%
X3310000Y-37500000D03*
D14*
%TO.P,D1,2,A_2*%
%TO.N,/Row 1*%
X-4310000Y-37500000D03*
%TD*%
D13*
%TO.P,D33,1,K_1*%
%TO.N,Net-(D33-K)*%
X108620000Y-75500000D03*
D14*
%TO.P,D33,2,A_2*%
%TO.N,/Row 3*%
X101000000Y-75500000D03*
%TD*%
D17*
%TO.P,U2,1,VCC_1*%
%TO.N,+3V3*%
X310000000Y-112750000D03*
D18*
%TO.P,U2,2,GND_2*%
%TO.N,GND*%
X312540000Y-112750000D03*
%TO.P,U2,3,SCL_3*%
%TO.N,/SCL*%
X315080000Y-112750000D03*
%TO.P,U2,4,SDA_4*%
%TO.N,/SDA*%
X317620000Y-112750000D03*
%TD*%
D13*
%TO.P,D73,1,K_1*%
%TO.N,Net-(D73-K)*%
X232000000Y-37500000D03*
D14*
%TO.P,D73,2,A_2*%
%TO.N,/Row 1*%
X224380000Y-37500000D03*
%TD*%
D13*
%TO.P,D29,1,K_1*%
%TO.N,Net-(D29-K)*%
X103620000Y-113500000D03*
D14*
%TO.P,D29,2,A_2*%
%TO.N,/Row 5*%
X96000000Y-113500000D03*
%TD*%
D13*
%TO.P,D36,1,K_1*%
%TO.N,Net-(D36-K)*%
X141310000Y-113500000D03*
D14*
%TO.P,D36,2,A_2*%
%TO.N,/Row 6*%
X133690000Y-113500000D03*
%TD*%
D13*
%TO.P,D63,1,K_1*%
%TO.N,Net-(D63-K)*%
X223120000Y-75500000D03*
D14*
%TO.P,D63,2,A_2*%
%TO.N,/Row 3*%
X215500000Y-75500000D03*
%TD*%
D13*
%TO.P,D62,1,K_1*%
%TO.N,Net-(D62-K)*%
X213620000Y-56500000D03*
D14*
%TO.P,D62,2,A_2*%
%TO.N,/Row 2*%
X206000000Y-56500000D03*
%TD*%
D13*
%TO.P,D41,1,K_1*%
%TO.N,Net-(D41-K)*%
X151310000Y-94500000D03*
D14*
%TO.P,D41,2,A_2*%
%TO.N,/Row 5*%
X143690000Y-94500000D03*
%TD*%
D13*
%TO.P,D18,1,K_1*%
%TO.N,Net-(D18-K)*%
X53620000Y-132500000D03*
D14*
%TO.P,D18,2,A_2*%
%TO.N,/Row 6*%
X46000000Y-132500000D03*
%TD*%
D13*
%TO.P,D82,1,K_1*%
%TO.N,Net-(D82-K)*%
X289810000Y-75500000D03*
D14*
%TO.P,D82,2,A_2*%
%TO.N,/Row 4*%
X282190000Y-75500000D03*
%TD*%
D16*
%TO.P,D12,1,K_1*%
%TO.N,Net-(D12-K)*%
X34000000Y-143500000D03*
D14*
%TO.P,D12,2,A_2*%
%TO.N,/Row 6*%
X34000000Y-135880000D03*
%TD*%
D13*
%TO.P,D35,1,K_1*%
%TO.N,Net-(D35-K)*%
X132120000Y-94500000D03*
D14*
%TO.P,D35,2,A_2*%
%TO.N,/Row 5*%
X124500000Y-94500000D03*
%TD*%
D13*
%TO.P,D54,1,K_1*%
%TO.N,Net-(D54-K)*%
X194000000Y-132500000D03*
D14*
%TO.P,D54,2,A_2*%
%TO.N,/Row 6*%
X186380000Y-132500000D03*
%TD*%
D13*
%TO.P,D16,1,K_1*%
%TO.N,Net-(D16-K)*%
X55620000Y-94500000D03*
D14*
%TO.P,D16,2,A_2*%
%TO.N,/Row 4*%
X48000000Y-94500000D03*
%TD*%
D13*
%TO.P,D70,1,K_1*%
%TO.N,Net-(D70-K)*%
X257810000Y-94000000D03*
D14*
%TO.P,D70,2,A_2*%
%TO.N,/Row 4*%
X250190000Y-94000000D03*
%TD*%
D13*
%TO.P,D69,1,K_1*%
%TO.N,Net-(D69-K)*%
X241500000Y-75500000D03*
D14*
%TO.P,D69,2,A_2*%
%TO.N,/Row 3*%
X233880000Y-75500000D03*
%TD*%
D13*
%TO.P,D58,1,K_1*%
%TO.N,Net-(D58-K)*%
X207500000Y-94500000D03*
D14*
%TO.P,D58,2,A_2*%
%TO.N,/Row 4*%
X199880000Y-94500000D03*
%TD*%
D13*
%TO.P,D30,1,K_1*%
%TO.N,Net-(D30-K)*%
X122120000Y-113500000D03*
D14*
%TO.P,D30,2,A_2*%
%TO.N,/Row 6*%
X114500000Y-113500000D03*
%TD*%
D13*
%TO.P,D2,1,K_1*%
%TO.N,Net-(D2-K)*%
X4310000Y-56500000D03*
D14*
%TO.P,D2,2,A_2*%
%TO.N,/Row 2*%
X-3310000Y-56500000D03*
%TD*%
D13*
%TO.P,D3,1,K_1*%
%TO.N,Net-(D3-K)*%
X9000000Y-75500000D03*
D14*
%TO.P,D3,2,A_2*%
%TO.N,/Row 3*%
X1380000Y-75500000D03*
%TD*%
D13*
%TO.P,D72,1,K_1*%
%TO.N,Net-(D72-K)*%
X251120000Y-132500000D03*
D14*
%TO.P,D72,2,A_2*%
%TO.N,/Row 6*%
X243500000Y-132500000D03*
%TD*%
D13*
%TO.P,D44,1,K_1*%
%TO.N,Net-(D44-K)*%
X137000000Y-56500000D03*
D14*
%TO.P,D44,2,A_2*%
%TO.N,/Row 2*%
X129380000Y-56500000D03*
%TD*%
D13*
%TO.P,D74,1,K_1*%
%TO.N,Net-(D74-K)*%
X251620000Y-37500000D03*
D14*
%TO.P,D74,2,A_2*%
%TO.N,/Row 2*%
X244000000Y-37500000D03*
%TD*%
D13*
%TO.P,D46,1,K_1*%
%TO.N,Net-(D46-K)*%
X165500000Y-75500000D03*
D14*
%TO.P,D46,2,A_2*%
%TO.N,/Row 4*%
X157880000Y-75500000D03*
%TD*%
D13*
%TO.P,D43,1,K_1*%
%TO.N,Net-(D43-K)*%
X137310000Y-37500000D03*
D14*
%TO.P,D43,2,A_2*%
%TO.N,/Row 1*%
X129690000Y-37500000D03*
%TD*%
D13*
%TO.P,D84,1,K_1*%
%TO.N,Net-(D84-K)*%
X289620000Y-132500000D03*
D14*
%TO.P,D84,2,A_2*%
%TO.N,/Row 6*%
X282000000Y-132500000D03*
%TD*%
D13*
%TO.P,D77,1,K_1*%
%TO.N,Net-(D77-K)*%
X289620000Y-113500000D03*
D14*
%TO.P,D77,2,A_2*%
%TO.N,/Row 5*%
X282000000Y-113500000D03*
%TD*%
D19*
%TO.P,SW1,A,A_A*%
%TO.N,/ENC_A*%
X307500000Y-90600000D03*
D20*
%TO.P,SW1,B,B_B*%
%TO.N,/ENC_B*%
X307500000Y-85600000D03*
%TO.P,SW1,C,C_C*%
%TO.N,GND*%
X307500000Y-88100000D03*
D21*
%TO.P,SW1,MP*%
%TO.N,N/C*%
X315000000Y-82500000D03*
X315000000Y-93700000D03*
D20*
%TO.P,SW1,S1,S1_S1*%
%TO.N,/ENC_SW*%
X322000000Y-85600000D03*
%TO.P,SW1,S2,S2_S2*%
%TO.N,GND*%
X322000000Y-90600000D03*
%TD*%
D13*
%TO.P,D21,1,K_1*%
%TO.N,Net-(D21-K)*%
X70810000Y-75500000D03*
D14*
%TO.P,D21,2,A_2*%
%TO.N,/Row 3*%
X63190000Y-75500000D03*
%TD*%
D13*
%TO.P,D7,1,K_1*%
%TO.N,Net-(D7-K)*%
X24120000Y-37500000D03*
D14*
%TO.P,D7,2,A_2*%
%TO.N,/Row 1*%
X16500000Y-37500000D03*
%TD*%
D13*
%TO.P,D66,1,K_1*%
%TO.N,Net-(D66-K)*%
X232310000Y-132500000D03*
D14*
%TO.P,D66,2,A_2*%
%TO.N,/Row 6*%
X224690000Y-132500000D03*
%TD*%
D13*
%TO.P,D4,1,K_1*%
%TO.N,Net-(D4-K)*%
X11120000Y-94500000D03*
D14*
%TO.P,D4,2,A_2*%
%TO.N,/Row 4*%
X3500000Y-94500000D03*
%TD*%
D13*
%TO.P,D83,1,K_1*%
%TO.N,Net-(D83-K)*%
X289000000Y-94500000D03*
D14*
%TO.P,D83,2,A_2*%
%TO.N,/Row 5*%
X281380000Y-94500000D03*
%TD*%
D13*
%TO.P,D47,1,K_1*%
%TO.N,Net-(D47-K)*%
X170620000Y-94500000D03*
D14*
%TO.P,D47,2,A_2*%
%TO.N,/Row 5*%
X163000000Y-94500000D03*
%TD*%
D13*
%TO.P,D37,1,K_1*%
%TO.N,Net-(D37-K)*%
X118120000Y-37500000D03*
D14*
%TO.P,D37,2,A_2*%
%TO.N,/Row 1*%
X110500000Y-37500000D03*
%TD*%
D13*
%TO.P,D23,1,K_1*%
%TO.N,Net-(D23-K)*%
X85120000Y-113500000D03*
D14*
%TO.P,D23,2,A_2*%
%TO.N,/Row 5*%
X77500000Y-113500000D03*
%TD*%
D13*
%TO.P,D75,1,K_1*%
%TO.N,Net-(D75-K)*%
X261000000Y-55500000D03*
D14*
%TO.P,D75,2,A_2*%
%TO.N,/Row 3*%
X253380000Y-55500000D03*
%TD*%
D13*
%TO.P,D27,1,K_1*%
%TO.N,Net-(D27-K)*%
X89620000Y-75500000D03*
D14*
%TO.P,D27,2,A_2*%
%TO.N,/Row 3*%
X82000000Y-75500000D03*
%TD*%
D13*
%TO.P,D20,1,K_1*%
%TO.N,Net-(D20-K)*%
X61120000Y-56500000D03*
D14*
%TO.P,D20,2,A_2*%
%TO.N,/Row 2*%
X53500000Y-56500000D03*
%TD*%
D13*
%TO.P,D14,1,K_1*%
%TO.N,Net-(D14-K)*%
X41620000Y-56500000D03*
D14*
%TO.P,D14,2,A_2*%
%TO.N,/Row 2*%
X34000000Y-56500000D03*
%TD*%
D13*
%TO.P,D49,1,K_1*%
%TO.N,Net-(D49-K)*%
X155500000Y-37500000D03*
D14*
%TO.P,D49,2,A_2*%
%TO.N,/Row 1*%
X147880000Y-37500000D03*
%TD*%
D13*
%TO.P,D28,1,K_1*%
%TO.N,Net-(D28-K)*%
X94120000Y-94500000D03*
D14*
%TO.P,D28,2,A_2*%
%TO.N,/Row 4*%
X86500000Y-94500000D03*
%TD*%
D13*
%TO.P,D31,1,K_1*%
%TO.N,Net-(D31-K)*%
X98810000Y-37500000D03*
D14*
%TO.P,D31,2,A_2*%
%TO.N,/Row 1*%
X91190000Y-37500000D03*
%TD*%
D13*
%TO.P,D42,1,K_1*%
%TO.N,Net-(D42-K)*%
X161310000Y-113500000D03*
D14*
%TO.P,D42,2,A_2*%
%TO.N,/Row 6*%
X153690000Y-113500000D03*
%TD*%
D13*
%TO.P,D22,1,K_1*%
%TO.N,Net-(D22-K)*%
X74620000Y-94500000D03*
D14*
%TO.P,D22,2,A_2*%
%TO.N,/Row 4*%
X67000000Y-94500000D03*
%TD*%
D22*
%TO.N,/Col 11*%
X324750000Y-57250000D03*
%TO.N,/Col 9*%
X327250000Y-50000000D03*
%TO.N,/Col 10*%
X326000000Y-52000000D03*
%TO.N,/Col 14*%
X325500000Y-67250000D03*
%TO.N,/Col 2*%
X330250000Y-27000000D03*
%TO.N,/Col 6*%
X328750000Y-39750000D03*
%TO.N,/Col 4*%
X329750000Y-34750000D03*
%TO.N,/Col 13*%
X326250000Y-64000000D03*
%TO.N,/Col 7*%
X328500000Y-44750000D03*
%TO.N,/Col 3*%
X330000000Y-32000000D03*
%TO.N,/Col 1*%
X331250000Y-24250000D03*
%TO.N,/Col 5*%
X329000000Y-37500000D03*
%TO.N,/Col 12*%
X326250000Y-62250000D03*
%TO.N,/Col 8*%
X327750000Y-47500000D03*
%TO.N,+3V3*%
X316750000Y-103750000D03*
X299000000Y-107000000D03*
%TO.N,GND*%
X307000000Y-77000000D03*
X319336146Y-102017408D03*
X319000000Y-91750000D03*
X299500000Y-66250000D03*
X299500000Y-54000000D03*
X325500000Y-68750000D03*
X299250000Y-70750000D03*
%TO.N,/ENC_B*%
X310500000Y-80750000D03*
X298500000Y-48250000D03*
%TD*%
%TO.N,/Col 11*%
D23*
X224790000Y-137710000D02*
X235144314Y-137710000D01*
X215265000Y-94847500D02*
X220027500Y-99610000D01*
X326750000Y-61830761D02*
X326750000Y-59250000D01*
X236696250Y-125803750D02*
X224790000Y-137710000D01*
X323831372Y-150550000D02*
X327550000Y-146831370D01*
X266418630Y-150550000D02*
X323831372Y-150550000D01*
X247584314Y-150150000D02*
X266018630Y-150150000D01*
X205740000Y-71035000D02*
X215265000Y-80560000D01*
X220027500Y-99610000D02*
X220027500Y-101991250D01*
X203695225Y-61510000D02*
X205740000Y-61510000D01*
X326900000Y-62334314D02*
X326900000Y-61980761D01*
X327550000Y-63815076D02*
X327150000Y-63415076D01*
X186690000Y-42460000D02*
X186690000Y-44504775D01*
X236696250Y-118660000D02*
X236696250Y-125803750D01*
X327550000Y-146831370D02*
X327550000Y-63815076D01*
X205740000Y-61510000D02*
X205740000Y-71035000D01*
X186690000Y-44504775D02*
X203695225Y-61510000D01*
X327150000Y-62584314D02*
X326900000Y-62334314D01*
X326900000Y-61980761D02*
X326750000Y-61830761D01*
X215265000Y-80560000D02*
X215265000Y-94847500D01*
X326750000Y-59250000D02*
X324750000Y-57250000D01*
X327150000Y-63415076D02*
X327150000Y-62584314D01*
X235144314Y-137710000D02*
X247584314Y-150150000D01*
X220027500Y-101991250D02*
X236696250Y-118660000D01*
X266018630Y-150150000D02*
X266418630Y-150550000D01*
%TO.N,/Col 9*%
X328500000Y-147500000D02*
X328500000Y-52000000D01*
X247502944Y-151200000D02*
X248497058Y-151199999D01*
X266087260Y-151350000D02*
X325150000Y-151350000D01*
X327250000Y-50750000D02*
X327250000Y-50000000D01*
X186690000Y-137710000D02*
X186690000Y-148190000D01*
X328500000Y-52000000D02*
X327250000Y-50750000D01*
X328750000Y-147750000D02*
X328500000Y-147500000D01*
X181927500Y-109135000D02*
X191452500Y-118660000D01*
X177165000Y-80560000D02*
X177165000Y-94847500D01*
X247302943Y-151000000D02*
X247502944Y-151200000D01*
X181927500Y-99610000D02*
X181927500Y-109135000D01*
X191452500Y-118660000D02*
X191452500Y-132947500D01*
X186690000Y-148190000D02*
X189500000Y-151000000D01*
X325150000Y-151350000D02*
X328750000Y-147750000D01*
X248697057Y-151000000D02*
X265737259Y-151000000D01*
X189500000Y-151000000D02*
X247302943Y-151000000D01*
X148590000Y-42460000D02*
X148590000Y-44590000D01*
X265737259Y-151000000D02*
X266087260Y-151350000D01*
X167640000Y-71035000D02*
X177165000Y-80560000D01*
X191452500Y-132947500D02*
X186690000Y-137710000D01*
X165510000Y-61510000D02*
X167640000Y-61510000D01*
X167640000Y-61510000D02*
X167640000Y-71035000D01*
X177165000Y-94847500D02*
X181927500Y-99610000D01*
X148590000Y-44590000D02*
X165510000Y-61510000D01*
X248497058Y-151199999D02*
X248697057Y-151000000D01*
%TO.N,/Col 10*%
X185500000Y-60320000D02*
X186690000Y-61510000D01*
X327500000Y-62368629D02*
X327500000Y-53750000D01*
X210502500Y-118660000D02*
X210502500Y-132947500D01*
X327550000Y-63249390D02*
X327550000Y-62418628D01*
X167640000Y-42460000D02*
X172224775Y-42460000D01*
X200977500Y-99610000D02*
X200977500Y-109135000D01*
X210502500Y-132947500D02*
X205740000Y-137710000D01*
X327550000Y-62418628D02*
X327500000Y-62368629D01*
X186690000Y-71035000D02*
X196215000Y-80560000D01*
X186690000Y-61510000D02*
X186690000Y-71035000D01*
X247418629Y-150550000D02*
X265852944Y-150550000D01*
X209000000Y-150000000D02*
X246868628Y-150000000D01*
X327950000Y-147181372D02*
X327950000Y-63649390D01*
X196215000Y-80560000D02*
X196215000Y-94847500D01*
X326000000Y-52250000D02*
X326000000Y-52000000D01*
X324181372Y-150950000D02*
X327950000Y-147181372D01*
X200977500Y-109135000D02*
X210502500Y-118660000D01*
X246868628Y-150000000D02*
X247418629Y-150550000D01*
X265852944Y-150550000D02*
X266252945Y-150950000D01*
X205740000Y-146740000D02*
X209000000Y-150000000D01*
X266252945Y-150950000D02*
X324181372Y-150950000D01*
X172224775Y-42460000D02*
X185500000Y-55735225D01*
X327500000Y-53750000D02*
X326000000Y-52250000D01*
X205740000Y-137710000D02*
X205740000Y-146740000D01*
X196215000Y-94847500D02*
X200977500Y-99610000D01*
X327950000Y-63649390D02*
X327550000Y-63249390D01*
X185500000Y-55735225D02*
X185500000Y-60320000D01*
%TO.N,/Col 14*%
X281940000Y-61510000D02*
X283290000Y-62860000D01*
X286500000Y-149250000D02*
X323000000Y-149250000D01*
X281940000Y-80560000D02*
X282480000Y-81100000D01*
X281940000Y-144690000D02*
X286500000Y-149250000D01*
X281940000Y-137710000D02*
X281940000Y-144690000D01*
X326150000Y-69019239D02*
X326150000Y-68480761D01*
X326150000Y-68480761D02*
X326000000Y-68330761D01*
X283390000Y-101060000D02*
X283390000Y-136260000D01*
X283100000Y-43620000D02*
X283100000Y-60350000D01*
X326000000Y-69169239D02*
X326150000Y-69019239D01*
X281940000Y-99610000D02*
X283390000Y-101060000D01*
X282480000Y-99070000D02*
X281940000Y-99610000D01*
X283290000Y-79210000D02*
X281940000Y-80560000D01*
X326000000Y-146250000D02*
X326000000Y-69169239D01*
X326000000Y-68330761D02*
X326000000Y-67750000D01*
X323000000Y-149250000D02*
X326000000Y-146250000D01*
X326000000Y-67750000D02*
X325500000Y-67250000D01*
X283290000Y-62860000D02*
X283290000Y-79210000D01*
X281940000Y-42460000D02*
X283100000Y-43620000D01*
X283390000Y-136260000D02*
X281940000Y-137710000D01*
X283100000Y-60350000D02*
X281940000Y-61510000D01*
X262890000Y-42460000D02*
X281940000Y-42460000D01*
X282480000Y-81100000D02*
X282480000Y-99070000D01*
%TO.N,/Col 2*%
X15240000Y-71035000D02*
X24765000Y-80560000D01*
X22383750Y-137710000D02*
X22383750Y-150883750D01*
X29527500Y-109135000D02*
X39052500Y-118660000D01*
X15240000Y-42460000D02*
X15240000Y-55704365D01*
X328250000Y-154500000D02*
X332750000Y-150000000D01*
X332750000Y-150000000D02*
X332750000Y-29500000D01*
X39052500Y-118660000D02*
X38590088Y-118660000D01*
X22383750Y-134866338D02*
X22383750Y-137710000D01*
X332750000Y-29500000D02*
X330250000Y-27000000D01*
X22383750Y-150883750D02*
X26000000Y-154500000D01*
X14900000Y-56044365D02*
X14900000Y-61170000D01*
X15240000Y-61510000D02*
X15240000Y-71035000D01*
X26000000Y-154500000D02*
X328250000Y-154500000D01*
X15240000Y-55704365D02*
X14900000Y-56044365D01*
X24765000Y-94847500D02*
X29527500Y-99610000D01*
X24765000Y-80560000D02*
X24765000Y-94847500D01*
X29527500Y-99610000D02*
X29527500Y-109135000D01*
X14900000Y-61170000D02*
X15240000Y-61510000D01*
X38590088Y-118660000D02*
X22383750Y-134866338D01*
%TO.N,/Col 6*%
X91440000Y-61510000D02*
X91440000Y-71035000D01*
X328750000Y-40750000D02*
X328750000Y-39750000D01*
X330250000Y-42250000D02*
X328750000Y-40750000D01*
X91440000Y-71035000D02*
X100965000Y-80560000D01*
X90400000Y-56044365D02*
X90400000Y-60470000D01*
X124777500Y-99610000D02*
X124777500Y-109135000D01*
X138000000Y-152500000D02*
X265540204Y-152500000D01*
X326700000Y-152550000D02*
X330500000Y-148750000D01*
X100965000Y-80560000D02*
X100965000Y-94847500D01*
X330250000Y-148500000D02*
X330250000Y-42250000D01*
X100965000Y-94847500D02*
X105727500Y-99610000D01*
X105727500Y-99610000D02*
X124777500Y-99610000D01*
X265540204Y-152500000D02*
X265590205Y-152550000D01*
X134302500Y-148802500D02*
X138000000Y-152500000D01*
X91440000Y-55004365D02*
X90400000Y-56044365D01*
X134302500Y-118660000D02*
X134302500Y-148802500D01*
X265590205Y-152550000D02*
X326700000Y-152550000D01*
X124777500Y-109135000D02*
X134302500Y-118660000D01*
X91440000Y-42460000D02*
X91440000Y-55004365D01*
X90400000Y-60470000D02*
X91440000Y-61510000D01*
X330500000Y-148750000D02*
X330250000Y-148500000D01*
%TO.N,/Col 4*%
X123983750Y-149733750D02*
X127750000Y-153500000D01*
X331500000Y-149500000D02*
X331500000Y-36500000D01*
X327500000Y-153500000D02*
X331500000Y-149500000D01*
X53340000Y-42460000D02*
X53340000Y-55104365D01*
X62865000Y-94847500D02*
X67627500Y-99610000D01*
X67627500Y-109135000D02*
X77152500Y-118660000D01*
X53340000Y-55104365D02*
X52400000Y-56044365D01*
X331500000Y-36500000D02*
X329750000Y-34750000D01*
X123983750Y-135190000D02*
X123983750Y-149733750D01*
X67627500Y-99610000D02*
X67627500Y-109135000D01*
X77152500Y-118660000D02*
X94151890Y-118660000D01*
X62865000Y-80560000D02*
X62865000Y-94847500D01*
X53360000Y-61510000D02*
X53360000Y-71055000D01*
X53360000Y-71055000D02*
X62865000Y-80560000D01*
X127750000Y-153500000D02*
X327500000Y-153500000D01*
X110681890Y-135190000D02*
X123983750Y-135190000D01*
X94151890Y-118660000D02*
X110681890Y-135190000D01*
X52400000Y-60550000D02*
X53360000Y-61510000D01*
X52400000Y-56044365D02*
X52400000Y-60550000D01*
%TO.N,/Col 13*%
X280790000Y-117510000D02*
X281940000Y-118660000D01*
X323500000Y-149750000D02*
X326750000Y-146500000D01*
X243840000Y-44504775D02*
X253735225Y-54400000D01*
X272202412Y-131400000D02*
X269200000Y-131400000D01*
X280790000Y-106002308D02*
X280790000Y-117510000D01*
X258127500Y-80560000D02*
X258127500Y-83339808D01*
X326750000Y-64500000D02*
X326250000Y-64000000D01*
X262890000Y-145890000D02*
X266750000Y-149750000D01*
X259715000Y-58990000D02*
X259715000Y-78972500D01*
X253735225Y-54400000D02*
X255125000Y-54400000D01*
X262890000Y-137710000D02*
X262890000Y-145890000D01*
X259715000Y-78972500D02*
X258127500Y-80560000D01*
X224790000Y-42460000D02*
X243840000Y-42460000D01*
X266750000Y-149750000D02*
X323500000Y-149750000D01*
X326750000Y-146500000D02*
X326750000Y-64500000D01*
X255125000Y-54400000D02*
X259715000Y-58990000D01*
X258127500Y-83339808D02*
X280790000Y-106002308D01*
X281940000Y-118660000D02*
X281940000Y-121662412D01*
X281940000Y-121662412D02*
X272202412Y-131400000D01*
X243840000Y-42460000D02*
X243840000Y-44504775D01*
X269200000Y-131400000D02*
X262890000Y-137710000D01*
%TO.N,/Col 7*%
X143827500Y-109135000D02*
X153352500Y-118660000D01*
X139065000Y-80560000D02*
X139065000Y-94847500D01*
X157250000Y-152000000D02*
X265605889Y-152000000D01*
X110490000Y-42460000D02*
X111640000Y-43610000D01*
X329750000Y-46000000D02*
X328500000Y-44750000D01*
X110490000Y-61510000D02*
X110490000Y-71035000D01*
X325850000Y-152150000D02*
X329750000Y-148250000D01*
X153352500Y-118660000D02*
X153352500Y-148102500D01*
X265755890Y-152150000D02*
X325850000Y-152150000D01*
X143827500Y-99610000D02*
X143827500Y-109135000D01*
X110490000Y-71035000D02*
X120015000Y-80560000D01*
X265605889Y-152000000D02*
X265755890Y-152150000D01*
X111640000Y-60360000D02*
X110490000Y-61510000D01*
X139065000Y-94847500D02*
X143827500Y-99610000D01*
X111640000Y-43610000D02*
X111640000Y-60360000D01*
X329750000Y-148250000D02*
X329750000Y-46000000D01*
X153352500Y-148102500D02*
X157250000Y-152000000D01*
X120015000Y-80560000D02*
X139065000Y-80560000D01*
%TO.N,/Col 3*%
X43815000Y-80560000D02*
X43815000Y-94847500D01*
X34290000Y-61510000D02*
X34290000Y-71035000D01*
X34290000Y-71035000D02*
X43815000Y-80560000D01*
X48750000Y-154000000D02*
X328000000Y-154000000D01*
X34290000Y-42460000D02*
X35100000Y-43270000D01*
X332250000Y-149750000D02*
X332250000Y-34250000D01*
X35100000Y-43270000D02*
X35100000Y-60700000D01*
X35100000Y-60700000D02*
X34290000Y-61510000D01*
X332250000Y-34250000D02*
X330000000Y-32000000D01*
X48577500Y-99610000D02*
X48577500Y-109135000D01*
X46196250Y-151446250D02*
X48750000Y-154000000D01*
X328000000Y-154000000D02*
X332250000Y-149750000D01*
X58102500Y-125803750D02*
X46196250Y-137710000D01*
X58102500Y-118660000D02*
X58102500Y-125803750D01*
X43815000Y-94847500D02*
X48577500Y-99610000D01*
X46196250Y-137710000D02*
X46196250Y-151446250D01*
X48577500Y-109135000D02*
X58102500Y-118660000D01*
%TO.N,/Col 1*%
X-3810000Y-55444365D02*
X-4410000Y-56044365D01*
X14446250Y-116140000D02*
X14446250Y-122003402D01*
X-3810000Y-75797500D02*
X952500Y-80560000D01*
X-4410000Y-56044365D02*
X-4410000Y-60910000D01*
X3333750Y-105027500D02*
X14446250Y-116140000D01*
X328250000Y-155250000D02*
X333250000Y-150250000D01*
X333250000Y-27250000D02*
X331250000Y-25250000D01*
X-1428750Y-137710000D02*
X-1428750Y-151071250D01*
X-3810000Y-42460000D02*
X-3810000Y-55444365D01*
X2750000Y-155250000D02*
X3000000Y-155000000D01*
X-1428750Y-151071250D02*
X2750000Y-155250000D01*
X331250000Y-25250000D02*
X331250000Y-24250000D01*
X14446250Y-122003402D02*
X-1260348Y-137710000D01*
X952500Y-80560000D02*
X952500Y-97228750D01*
X3000000Y-155000000D02*
X328000000Y-155000000D01*
X333250000Y-150250000D02*
X333250000Y-27250000D01*
X952500Y-97228750D02*
X3333750Y-99610000D01*
X-4410000Y-60910000D02*
X-3810000Y-61510000D01*
X328000000Y-155000000D02*
X328250000Y-155250000D01*
X-3810000Y-61510000D02*
X-3810000Y-75797500D01*
X3333750Y-99610000D02*
X3333750Y-105027500D01*
X-1260348Y-137710000D02*
X-1428750Y-137710000D01*
%TO.N,/Col 5*%
X119837275Y-118660000D02*
X130250000Y-129072725D01*
X130250000Y-129072725D02*
X130250000Y-149750000D01*
X327000000Y-153000000D02*
X331000000Y-149000000D01*
X86677500Y-99610000D02*
X86677500Y-109135000D01*
X133500000Y-153000000D02*
X327000000Y-153000000D01*
X330750000Y-39250000D02*
X329000000Y-37500000D01*
X81915000Y-94847500D02*
X86677500Y-99610000D01*
X72390000Y-61510000D02*
X72390000Y-71035000D01*
X72390000Y-55054365D02*
X71400000Y-56044365D01*
X81915000Y-80560000D02*
X81915000Y-94847500D01*
X72390000Y-42460000D02*
X72390000Y-55054365D01*
X115252500Y-118660000D02*
X119837275Y-118660000D01*
X71400000Y-60520000D02*
X72390000Y-61510000D01*
X72390000Y-71035000D02*
X81915000Y-80560000D01*
X331000000Y-39250000D02*
X330750000Y-39250000D01*
X86677500Y-109135000D02*
X96202500Y-118660000D01*
X96202500Y-118660000D02*
X115252500Y-118660000D01*
X71400000Y-56044365D02*
X71400000Y-60520000D01*
X130250000Y-149750000D02*
X133500000Y-153000000D01*
X331000000Y-149000000D02*
X331000000Y-39250000D01*
%TO.N,/Col 12*%
X323665686Y-150150000D02*
X327150000Y-146665685D01*
X261263655Y-118660000D02*
X243840000Y-136083655D01*
X222745225Y-61510000D02*
X224790000Y-61510000D01*
X327150000Y-63980761D02*
X326750000Y-63580761D01*
X243840000Y-136083655D02*
X243840000Y-137710000D01*
X205740000Y-44504775D02*
X222745225Y-61510000D01*
X266584315Y-150150000D02*
X323665686Y-150150000D01*
X262890000Y-118660000D02*
X261263655Y-118660000D01*
X224790000Y-71035000D02*
X234315000Y-80560000D01*
X254144315Y-137710000D02*
X266584315Y-150150000D01*
X326750000Y-62750000D02*
X326250000Y-62250000D01*
X255429775Y-97090000D02*
X257333750Y-97090000D01*
X224790000Y-61510000D02*
X224790000Y-71035000D01*
X257333750Y-97090000D02*
X257333750Y-113103750D01*
X205740000Y-42460000D02*
X205740000Y-44504775D01*
X238899775Y-80560000D02*
X255429775Y-97090000D01*
X326750000Y-63580761D02*
X326750000Y-62750000D01*
X327150000Y-146665685D02*
X327150000Y-63980761D01*
X234315000Y-80560000D02*
X238899775Y-80560000D01*
X243840000Y-137710000D02*
X254144315Y-137710000D01*
X257333750Y-113103750D02*
X262890000Y-118660000D01*
%TO.N,/Col 8*%
X329250000Y-49000000D02*
X327750000Y-47500000D01*
X248662744Y-151599999D02*
X248762742Y-151500000D01*
X162877500Y-109135000D02*
X172402500Y-118660000D01*
X130690000Y-43610000D02*
X130690000Y-60360000D01*
X248762742Y-151500000D02*
X265671575Y-151500000D01*
X158115000Y-94847500D02*
X162877500Y-99610000D01*
X325500000Y-151750000D02*
X329250000Y-148000000D01*
X158115000Y-80560000D02*
X158115000Y-94847500D01*
X265671575Y-151500000D02*
X265921575Y-151750000D01*
X162877500Y-99610000D02*
X162877500Y-109135000D01*
X148590000Y-71035000D02*
X158115000Y-80560000D01*
X265921575Y-151750000D02*
X325500000Y-151750000D01*
X129540000Y-61510000D02*
X148590000Y-61510000D01*
X173793900Y-147043900D02*
X178250000Y-151500000D01*
X329250000Y-148000000D02*
X329250000Y-49000000D01*
X129540000Y-42460000D02*
X130690000Y-43610000D01*
X172402500Y-118660000D02*
X173793900Y-120051400D01*
X247237259Y-151500000D02*
X247337259Y-151600000D01*
X148590000Y-61510000D02*
X148590000Y-71035000D01*
X247337259Y-151600000D02*
X248662744Y-151599999D01*
X173793900Y-120051400D02*
X173793900Y-147043900D01*
X130690000Y-60360000D02*
X129540000Y-61510000D01*
X178250000Y-151500000D02*
X247237259Y-151500000D01*
%TO.N,+3V3*%
X313500000Y-107000000D02*
X316750000Y-103750000D01*
X299000000Y-107000000D02*
X313500000Y-107000000D01*
%TO.N,GND*%
X319000000Y-101681262D02*
X319000000Y-91750000D01*
X319336146Y-102017408D02*
X319000000Y-101681262D01*
X325500000Y-69000000D02*
X325500000Y-68750000D01*
X300750000Y-70750000D02*
X307000000Y-77000000D01*
X299250000Y-70750000D02*
X300750000Y-70750000D01*
X299500000Y-54000000D02*
X299500000Y-66250000D01*
%TO.N,/ENC_B*%
X300250000Y-79500000D02*
X298500000Y-77750000D01*
X310500000Y-80750000D02*
X312500000Y-78750000D01*
X312500000Y-78750000D02*
X301000000Y-78750000D01*
X301000000Y-78750000D02*
X300250000Y-79500000D01*
X298500000Y-77750000D02*
X298500000Y-48250000D01*
%TD*%
M02*
