M48
; DRILL file KiCad 10.0.5 date 2026-09-21T21:29:18
; FORMAT={-:-/ absolute / metric / decimal}
; #@! TF.CreationDate,2026-09-21T21:29:18+05:00
; #@! TF.GenerationSoftware,Kicad,Pcbnew,10.0.5
; #@! TF.FileFunction,Plated,1,2,PTH
FMAT,2
METRIC
; #@! TA.AperFunction,Plated,PTH,ViaDrill
T1C0.300
; #@! TA.AperFunction,Plated,PTH,ComponentDrill
T2C0.800
; #@! TA.AperFunction,Plated,PTH,ComponentDrill
T3C1.000
; #@! TA.AperFunction,Plated,PTH,ComponentDrill
T4C1.500
; #@! TA.AperFunction,Plated,PTH,ComponentDrill
T5C1.524
; #@! TA.AperFunction,Plated,PTH,ComponentDrill
T6C2.200
%
G90
G05
T1
X298.5Y-48.25
X299.0Y-107.0
X299.25Y-70.75
X299.5Y-54.0
X299.5Y-66.25
X307.0Y-77.0
X310.5Y-80.75
X316.75Y-103.75
X319.0Y-91.75
X319.336Y-102.017
X324.75Y-57.25
X325.5Y-67.25
X325.5Y-68.75
X326.0Y-52.0
X326.25Y-62.25
X326.25Y-64.0
X327.25Y-50.0
X327.75Y-47.5
X328.5Y-44.75
X328.75Y-39.75
X329.0Y-37.5
X329.75Y-34.75
X330.0Y-32.0
X330.25Y-27.0
X331.25Y-24.25
T2
X-4.31Y-37.5
X-3.31Y-56.5
X1.38Y-75.5
X3.31Y-37.5
X3.5Y-94.5
X3.5Y-117.69
X3.5Y-125.31
X4.31Y-56.5
X9.0Y-75.5
X10.5Y-135.88
X10.5Y-143.5
X11.12Y-94.5
X16.0Y-56.5
X16.5Y-37.5
X23.62Y-56.5
X24.12Y-37.5
X25.0Y-75.5
X28.0Y-94.5
X32.62Y-75.5
X34.0Y-56.5
X34.0Y-135.88
X34.0Y-143.5
X34.5Y-37.0
X35.62Y-94.5
X39.0Y-113.5
X41.62Y-56.5
X42.12Y-37.0
X43.5Y-75.5
X46.0Y-132.5
X46.62Y-113.5
X48.0Y-94.5
X51.12Y-75.5
X53.0Y-37.5
X53.5Y-56.5
X53.62Y-132.5
X55.62Y-94.5
X58.0Y-113.5
X60.62Y-37.5
X61.12Y-56.5
X63.19Y-75.5
X65.62Y-113.5
X67.0Y-94.5
X70.81Y-75.5
X72.5Y-37.5
X72.5Y-56.5
X74.62Y-94.5
X77.5Y-113.5
X80.12Y-37.5
X80.12Y-56.5
X82.0Y-75.5
X85.12Y-113.5
X86.5Y-94.5
X89.62Y-75.5
X91.19Y-37.5
X91.5Y-56.5
X94.12Y-94.5
X96.0Y-113.5
X98.81Y-37.5
X99.12Y-56.5
X101.0Y-75.5
X103.62Y-113.5
X105.69Y-94.5
X108.62Y-75.5
X110.0Y-56.5
X110.5Y-37.5
X113.0Y-137.19
X113.0Y-144.81
X113.31Y-94.5
X114.5Y-113.5
X117.62Y-56.5
X118.12Y-37.5
X120.0Y-75.5
X122.12Y-113.5
X124.5Y-94.5
X127.62Y-75.5
X129.38Y-56.5
X129.69Y-37.5
X132.12Y-94.5
X133.69Y-113.5
X137.0Y-56.5
X137.31Y-37.5
X138.5Y-75.5
X141.31Y-113.5
X143.69Y-94.5
X146.12Y-75.5
X147.88Y-37.5
X149.0Y-56.5
X151.31Y-94.5
X153.69Y-113.5
X155.5Y-37.5
X156.62Y-56.5
X157.88Y-75.5
X161.31Y-113.5
X163.0Y-94.5
X165.5Y-75.5
X167.38Y-37.5
X167.38Y-56.5
X170.62Y-94.5
X171.88Y-113.5
X175.0Y-37.5
X175.0Y-56.5
X176.88Y-75.5
X179.5Y-113.5
X181.38Y-94.5
X184.5Y-75.5
X186.38Y-132.5
X186.69Y-37.5
X186.88Y-56.5
X189.0Y-94.5
X191.88Y-113.5
X194.0Y-132.5
X194.31Y-37.5
X194.5Y-56.5
X195.38Y-75.5
X199.5Y-113.5
X199.88Y-94.5
X203.0Y-75.5
X205.88Y-132.5
X206.0Y-37.5
X206.0Y-56.5
X207.5Y-94.5
X209.88Y-113.5
X213.5Y-132.5
X213.62Y-37.5
X213.62Y-56.5
X215.5Y-75.5
X217.5Y-113.5
X220.0Y-94.5
X223.12Y-75.5
X224.38Y-37.5
X224.69Y-56.5
X224.69Y-132.5
X227.62Y-94.5
X232.0Y-37.5
X232.31Y-56.5
X232.31Y-132.5
X233.88Y-75.5
X241.5Y-75.5
X243.5Y-132.5
X244.0Y-37.5
X248.0Y-117.19
X248.0Y-124.81
X250.19Y-94.0
X251.12Y-132.5
X251.62Y-37.5
X253.38Y-55.5
X254.5Y-79.69
X254.5Y-87.31
X257.81Y-94.0
X261.0Y-55.5
X263.19Y-132.5
X263.5Y-37.5
X270.81Y-132.5
X271.12Y-37.5
X274.5Y-117.69
X274.5Y-125.31
X281.38Y-94.5
X281.5Y-37.5
X282.0Y-56.5
X282.0Y-113.5
X282.0Y-132.5
X282.19Y-75.5
X289.0Y-94.5
X289.12Y-37.5
X289.62Y-56.5
X289.62Y-113.5
X289.62Y-132.5
X289.81Y-75.5
T3
X307.5Y-85.6
X307.5Y-88.1
X307.5Y-90.6
X310.0Y-112.75
X312.54Y-112.75
X315.08Y-112.75
X317.62Y-112.75
X322.0Y-85.6
X322.0Y-90.6
T4
X8.096Y-118.68
X14.446Y-116.14
X117.634Y-137.73
X123.984Y-135.19
X250.984Y-99.63
X253.365Y-61.53
X257.334Y-97.09
X259.715Y-58.99
T5
X-3.81Y-42.46
X-3.81Y-61.51
X-1.429Y-137.71
X0.952Y-80.56
X2.54Y-39.92
X2.54Y-58.97
X3.334Y-99.61
X4.921Y-135.17
X7.302Y-78.02
X9.684Y-97.07
X15.24Y-42.46
X15.24Y-61.51
X21.59Y-39.92
X21.59Y-58.97
X22.384Y-137.71
X24.765Y-80.56
X28.734Y-135.17
X29.527Y-99.61
X31.115Y-78.02
X34.29Y-42.46
X34.29Y-61.51
X35.877Y-97.07
X39.052Y-118.66
X40.64Y-39.92
X40.64Y-58.97
X43.815Y-80.56
X45.402Y-116.12
X46.196Y-137.71
X48.578Y-99.61
X50.165Y-78.02
X52.546Y-135.17
X53.34Y-42.46
X53.36Y-61.51
X54.927Y-97.07
X58.102Y-118.66
X59.69Y-39.92
X59.71Y-58.97
X62.865Y-80.56
X64.453Y-116.12
X67.627Y-99.61
X69.215Y-78.02
X72.39Y-42.46
X72.39Y-61.51
X73.977Y-97.07
X77.153Y-118.66
X78.74Y-39.92
X78.74Y-58.97
X81.915Y-80.56
X83.502Y-116.12
X86.677Y-99.61
X88.265Y-78.02
X91.44Y-42.46
X91.44Y-61.51
X93.027Y-97.07
X96.203Y-118.66
X97.79Y-39.92
X97.79Y-58.97
X100.965Y-80.56
X102.552Y-116.12
X105.727Y-99.61
X107.315Y-78.02
X110.49Y-42.46
X110.49Y-61.51
X112.078Y-97.07
X115.252Y-118.66
X116.84Y-39.92
X116.84Y-58.97
X120.015Y-80.56
X121.602Y-116.12
X124.777Y-99.61
X126.365Y-78.02
X129.54Y-42.46
X129.54Y-61.51
X131.127Y-97.07
X134.302Y-118.66
X135.89Y-39.92
X135.89Y-58.97
X139.065Y-80.56
X140.653Y-116.12
X143.827Y-99.61
X145.415Y-78.02
X148.59Y-42.46
X148.59Y-61.51
X150.177Y-97.07
X153.352Y-118.66
X154.94Y-39.92
X154.94Y-58.97
X158.115Y-80.56
X159.702Y-116.12
X162.877Y-99.61
X164.465Y-78.02
X167.64Y-42.46
X167.64Y-61.51
X169.227Y-97.07
X172.403Y-118.66
X173.99Y-39.92
X173.99Y-58.97
X177.165Y-80.56
X178.752Y-116.12
X181.927Y-99.61
X183.515Y-78.02
X186.69Y-42.46
X186.69Y-61.51
X186.69Y-137.71
X188.278Y-97.07
X191.452Y-118.66
X193.04Y-39.92
X193.04Y-58.97
X193.04Y-135.17
X196.215Y-80.56
X197.802Y-116.12
X200.977Y-99.61
X202.565Y-78.02
X205.74Y-42.46
X205.74Y-61.51
X205.74Y-137.71
X207.327Y-97.07
X210.502Y-118.66
X212.09Y-39.92
X212.09Y-58.97
X212.09Y-135.17
X215.265Y-80.56
X216.852Y-116.12
X220.028Y-99.61
X221.615Y-78.02
X224.79Y-42.46
X224.79Y-61.51
X224.79Y-137.71
X226.377Y-97.07
X231.14Y-39.92
X231.14Y-58.97
X231.14Y-135.17
X234.315Y-80.56
X236.696Y-118.66
X240.665Y-78.02
X243.046Y-116.12
X243.84Y-42.46
X243.84Y-137.71
X250.19Y-39.92
X250.19Y-135.17
X258.127Y-80.56
X262.89Y-42.46
X262.89Y-118.66
X262.89Y-137.71
X264.477Y-78.02
X269.24Y-39.92
X269.24Y-116.12
X269.24Y-135.17
X281.94Y-42.46
X281.94Y-61.51
X281.94Y-80.56
X281.94Y-99.61
X281.94Y-118.66
X281.94Y-137.71
X288.29Y-39.92
X288.29Y-58.97
X288.29Y-78.02
X288.29Y-97.07
X288.29Y-116.12
X288.29Y-135.17
T6
X-15.0Y-30.0
X-15.0Y-87.5
X-15.0Y-157.5
X161.5Y-30.0
X161.5Y-157.5
X337.5Y-30.0
X337.5Y-83.97
X337.5Y-157.5
T4
G00X314.35Y-82.5
M15
G01X315.65Y-82.5
M16
G05
G00X314.35Y-93.7
M15
G01X315.65Y-93.7
M16
G05
M30
